<?xml version="1.0" encoding="UTF-8" standalone="no"?>
<!DOCTYPE svg PUBLIC "-//W3C//DTD SVG 1.1//EN" "http://www.w3.org/Graphics/SVG/1.1/DTD/svg11.dtd">
<svg width="100%" height="100%" viewBox="0 0 96 96" version="1.1" xmlns="http://www.w3.org/2000/svg" xmlns:xlink="http://www.w3.org/1999/xlink" xml:space="preserve" xmlns:serif="http://www.serif.com/" style="fill-rule:evenodd;clip-rule:evenodd;stroke-linejoin:round;stroke-miterlimit:2;">
    <g id="Artboard1" transform="matrix(0.75,0,0,0.75,0,0)">
        <rect x="0" y="0" width="128" height="128" style="fill:none;"/>
        <g transform="matrix(1.5313,0,0,1.5313,-41.1938,-38.7042)">
            <circle cx="68.696" cy="67.07" r="40.924" style="fill:url(#_Linear1);"/>
        </g>
        <g transform="matrix(2.51416,-2.51416,2.51416,2.51416,4.77309,65.2571)">
            <path d="M8.793,12.5L4,12.5C3.852,12.5 3.711,12.434 3.616,12.32C3.521,12.207 3.482,12.057 3.508,11.911C3.508,11.911 3.716,10.764 4.211,9.627C4.565,8.816 5.07,8.021 5.722,7.584L5.723,7.584C6.453,7.097 7.495,6.976 8.489,7.034C9.44,7.09 10.338,7.299 10.809,7.425C13.302,3.709 17.51,1.472 22.003,1.5C22.278,1.502 22.5,1.725 22.5,2C22.5,4.769 21.725,9.598 16.579,13.209C16.706,13.685 16.911,14.572 16.966,15.511C17.024,16.505 16.903,17.547 16.416,18.277L16.416,18.278C15.979,18.93 15.184,19.435 14.373,19.789C13.236,20.284 12.089,20.492 12.089,20.492C11.943,20.518 11.793,20.479 11.68,20.384C11.566,20.289 11.5,20.148 11.5,20L11.5,15.207L8.793,12.5ZM10.248,8.314C9.792,8.205 9.127,8.073 8.431,8.033C7.66,7.987 6.844,8.039 6.278,8.416C5.77,8.756 5.403,9.395 5.128,10.027C4.893,10.566 4.729,11.107 4.627,11.5L8.66,11.5C9.104,10.398 9.635,9.332 10.248,8.314ZM15.732,12.578C20.436,9.418 21.391,5.18 21.491,2.507C17.394,2.65 13.609,4.822 11.424,8.315L11.421,8.32C10.7,9.446 10.085,10.638 9.585,11.878L12.123,14.416C13.378,13.917 14.585,13.303 15.732,12.578ZM15.691,13.775C14.67,14.379 13.603,14.903 12.5,15.342L12.5,19.373C12.893,19.271 13.434,19.107 13.973,18.872C14.605,18.597 15.244,18.23 15.584,17.722C15.961,17.156 16.013,16.34 15.967,15.569C15.927,14.885 15.8,14.23 15.691,13.775ZM4.178,16.117C5.219,15.241 6.771,15.289 7.755,16.228L7.761,16.234C8.735,17.196 8.757,18.786 7.882,19.822C7.328,20.481 6.348,20.981 5.36,21.324C3.961,21.809 2.566,21.996 2.566,21.996C2.412,22.016 2.257,21.964 2.146,21.854C2.036,21.743 1.984,21.588 2.004,21.434C2.004,21.434 2.191,20.039 2.676,18.64C3.019,17.652 3.519,16.671 4.178,16.117ZM4.822,16.883C4.281,17.337 3.901,18.158 3.62,18.968C3.374,19.68 3.21,20.39 3.112,20.888C3.61,20.79 4.32,20.626 5.032,20.38C5.842,20.099 6.663,19.719 7.117,19.178L7.118,19.177C7.662,18.534 7.664,17.547 7.059,16.946C6.442,16.362 5.473,16.334 4.822,16.882L4.822,16.883Z" style="fill:white;"/>
        </g>
    </g>
    <defs>
        <linearGradient id="_Linear1" x1="0" y1="0" x2="1" y2="0" gradientUnits="userSpaceOnUse" gradientTransform="matrix(5.01094e-15,81.8348,-81.8348,5.01094e-15,68.8823,26.1524)"><stop offset="0" style="stop-color:rgb(156,163,175);stop-opacity:0.66"/><stop offset="1" style="stop-color:rgb(55,65,81);stop-opacity:0.66"/></linearGradient>
    </defs>
</svg>
