<?xml version="1.0" encoding="UTF-8" standalone="no"?>
<!DOCTYPE svg PUBLIC "-//W3C//DTD SVG 1.1//EN" "http://www.w3.org/Graphics/SVG/1.1/DTD/svg11.dtd">
<svg width="100%" height="100%" viewBox="0 0 96 96" version="1.1" xmlns="http://www.w3.org/2000/svg" xmlns:xlink="http://www.w3.org/1999/xlink" xml:space="preserve" xmlns:serif="http://www.serif.com/" style="fill-rule:evenodd;clip-rule:evenodd;stroke-linejoin:round;stroke-miterlimit:2;">
    <g id="Artboard1" transform="matrix(0.75,0,0,0.75,0,0)">
        <rect x="0" y="0" width="128" height="128" style="fill:none;"/>
        <g transform="matrix(1.5313,0,0,1.5313,-41.1938,-38.7042)">
            <circle cx="68.696" cy="67.07" r="40.924" style="fill:url(#_Linear1);"/>
        </g>
        <g transform="matrix(0.427231,1.59445,-1.59445,0.427231,92.0632,10.7424)">
            <path d="M8.548,13.09L4,13.09C3.677,13.09 3.37,12.947 3.163,12.699C2.956,12.451 2.869,12.123 2.927,11.805C2.927,11.805 3.146,10.593 3.67,9.391C4.07,8.474 4.657,7.587 5.394,7.094L5.395,7.093C6.222,6.541 7.398,6.379 8.524,6.445C9.293,6.49 10.03,6.631 10.556,6.754C13.184,3.079 17.455,0.881 22.007,0.91C22.606,0.913 23.09,1.4 23.09,2C23.09,4.828 22.319,9.717 17.249,13.455C17.371,13.98 17.51,14.712 17.555,15.476C17.621,16.602 17.459,17.778 16.907,18.605L16.906,18.606C16.413,19.343 15.526,19.93 14.609,20.33C13.407,20.854 12.195,21.073 12.195,21.073C11.877,21.131 11.549,21.044 11.301,20.837C11.053,20.63 10.91,20.323 10.91,20L10.91,15.452L8.548,13.09ZM9.327,8.729C9.037,8.681 8.72,8.641 8.396,8.622C7.757,8.584 7.075,8.594 6.606,8.907C6.183,9.19 5.898,9.737 5.669,10.263C5.574,10.482 5.491,10.701 5.42,10.91L8.265,10.91C8.58,10.164 8.935,9.436 9.327,8.729ZM15.417,12.078C19.526,9.312 20.631,5.684 20.859,3.138C17.211,3.468 13.889,5.488 11.925,8.628L11.918,8.638C11.287,9.624 10.739,10.662 10.282,11.74L12.263,13.721C13.354,13.265 14.404,12.718 15.417,12.078ZM15.274,14.691C14.565,15.078 13.836,15.427 13.09,15.739L13.09,18.58C13.299,18.509 13.518,18.426 13.737,18.331C14.263,18.102 14.81,17.817 15.093,17.394C15.406,16.925 15.416,16.243 15.378,15.604C15.359,15.287 15.321,14.976 15.274,14.691ZM3.798,15.666C5.068,14.596 6.962,14.655 8.163,15.801L8.176,15.814C9.368,16.991 9.404,18.936 8.334,20.203C7.72,20.932 6.647,21.503 5.553,21.882C4.097,22.387 2.644,22.581 2.644,22.581C2.308,22.626 1.969,22.511 1.729,22.271C1.489,22.031 1.374,21.692 1.419,21.356C1.419,21.356 1.613,19.903 2.118,18.447C2.497,17.353 3.068,16.279 3.798,15.666ZM5.201,17.335C4.731,17.73 4.423,18.457 4.178,19.162C4.067,19.484 3.973,19.805 3.895,20.105C4.195,20.027 4.516,19.933 4.838,19.822C5.543,19.577 6.27,19.269 6.665,18.799L6.667,18.796C7.014,18.386 7.032,17.756 6.644,17.366C6.243,16.996 5.621,16.981 5.203,17.334L5.201,17.335ZM25.746,60.304C24.988,60.282 24.228,60.236 23.467,60.164C22.258,54.978 22.272,49.43 23.745,43.931C28.277,27.018 45.005,16.603 61.933,19.612C62.044,20.363 62.131,21.12 62.194,21.881C46.298,18.714 30.439,28.292 25.972,44.057C28.885,48.868 33.552,52.378 38.995,53.837C41.408,54.483 43.842,54.692 46.212,54.512C45.002,55.303 43.744,56.019 42.447,56.658C41.11,56.538 39.767,56.302 38.431,55.943C33.136,54.525 28.509,51.341 25.294,46.964C24.458,51.511 24.66,56.047 25.746,60.304Z" style="fill:white;"/>
        </g>
    </g>
    <defs>
        <linearGradient id="_Linear1" x1="0" y1="0" x2="1" y2="0" gradientUnits="userSpaceOnUse" gradientTransform="matrix(5.01094e-15,81.8348,-81.8348,5.01094e-15,68.8823,26.1524)"><stop offset="0" style="stop-color:rgb(156,163,175);stop-opacity:0.66"/><stop offset="1" style="stop-color:rgb(55,65,81);stop-opacity:0.66"/></linearGradient>
    </defs>
</svg>
