
<svg  xmlns="http://www.w3.org/2000/svg" viewBox="0 0 640 640" fill="currentColor">
    <g transform="matrix(1,0,0,1,-708,0)">
            <g transform="matrix(-0.885056,-1.08388e-16,1.05118e-16,-0.858356,1356.59,579.044)">
                <path d="M398.5,494.861L532.874,360.487C544.065,349.296 561.963,349.579 572.816,361.118C583.67,372.657 583.396,391.112 572.204,402.303L390.679,583.828C385.103,589.404 377.854,592.143 370.635,592.043C370.508,592.045 370.381,592.046 370.253,592.046C360.652,592.046 352.164,587.096 347.059,579.539L168.302,400.782C157.111,389.591 156.837,371.137 167.691,359.598C178.544,348.058 196.442,347.776 207.633,358.967L342.007,493.34L342.007,47.218C342.007,31.143 354.664,18.093 370.253,18.093C385.843,18.093 398.5,31.143 398.5,47.218L398.5,494.861Z"/>
            </g>
    </g>
</svg>
