<svg  xmlns="http://www.w3.org/2000/svg" viewBox="0 0 640 640" fill="currentColor">
    <g transform="matrix(1,0,0,1,-3562,0)">
        <g id="Artboard6" transform="matrix(1,0,0,1,-0.917604,0)">
            <rect x="3562.92" y="0" width="640" height="640" style="fill:none;"/>
            <g transform="matrix(-0.682677,-8.36038e-17,8.10817e-17,-0.662082,4135.68,521.981)">
                <path d="M370.253,-152.181C615.003,-152.181 813.709,52.706 813.709,305.069C813.709,557.432 615.003,762.319 370.253,762.319C125.504,762.319 -73.202,557.432 -73.202,305.069C-73.202,52.706 125.504,-152.181 370.253,-152.181ZM370.253,-76.661C165.926,-76.661 0.039,94.386 0.039,305.069C0.039,515.752 165.926,686.8 370.253,686.8C574.58,686.8 740.468,515.752 740.468,305.069C740.468,94.386 574.58,-76.661 370.253,-76.661ZM340.691,585.199L162.473,406.98C147.964,392.472 147.608,368.547 161.68,353.586C175.751,338.626 198.954,338.26 213.463,352.769L333.633,472.939L333.633,47.218C333.633,26.378 350.042,9.458 370.253,9.458C390.465,9.458 406.874,26.378 406.874,47.218L406.874,474.459L527.044,354.289C541.553,339.78 564.756,340.147 578.827,355.107C592.898,370.067 592.543,393.992 578.034,408.501L396.509,590.026C389.309,597.226 379.957,600.777 370.635,600.678C370.508,600.679 370.381,600.68 370.253,600.68C358.12,600.68 347.356,594.582 340.691,585.199Z"/>
            </g>
        </g>
    </g>
</svg>
