<?xml version="1.0" encoding="UTF-8" standalone="no"?>
<!DOCTYPE svg PUBLIC "-//W3C//DTD SVG 1.1//EN" "http://www.w3.org/Graphics/SVG/1.1/DTD/svg11.dtd">
<svg width="100%" height="100%" viewBox="0 0 2543 1113" version="1.1" xmlns="http://www.w3.org/2000/svg" xmlns:xlink="http://www.w3.org/1999/xlink" xml:space="preserve" xmlns:serif="http://www.serif.com/" style="fill-rule:evenodd;clip-rule:evenodd;stroke-linejoin:round;stroke-miterlimit:2;">
    <g transform="matrix(8.25794,0,0,8.25794,300.052,948.443)">
        <path d="M0,-6.535C-0.163,-8.332 -0.612,-9.992 -1.348,-11.518C-2.083,-13.041 -3.022,-14.336 -4.166,-15.397C-5.31,-16.46 -6.645,-17.288 -8.168,-17.889C-9.694,-18.487 -11.3,-18.787 -12.987,-18.787C-14.676,-18.787 -16.269,-18.487 -17.766,-17.889C-19.265,-17.288 -20.584,-16.46 -21.728,-15.397C-22.871,-14.336 -23.798,-13.041 -24.505,-11.518C-25.213,-9.992 -25.649,-8.332 -25.812,-6.535L0,-6.535ZM-12.987,18.869C-16.31,18.869 -19.332,18.283 -22.055,17.112C-24.778,15.942 -27.106,14.349 -29.038,12.334C-30.972,10.319 -32.469,7.978 -33.531,5.309C-34.592,2.642 -35.124,-0.191 -35.124,-3.186C-35.124,-6.18 -34.592,-9.026 -33.531,-11.721C-32.469,-14.417 -30.972,-16.786 -29.038,-18.828C-27.106,-20.87 -24.778,-22.476 -22.055,-23.648C-19.332,-24.817 -16.283,-25.404 -12.906,-25.404C-9.585,-25.404 -6.576,-24.803 -3.88,-23.607C-1.184,-22.408 1.115,-20.815 3.022,-18.828C4.928,-16.839 6.384,-14.526 7.392,-11.885C8.399,-9.243 8.903,-6.48 8.903,-3.594C8.903,-2.94 8.875,-2.328 8.821,-1.757C8.767,-1.184 8.712,-0.707 8.658,-0.327L-25.567,-0.327C-25.404,1.579 -24.954,3.294 -24.219,4.819C-23.484,6.344 -22.532,7.665 -21.36,8.78C-20.19,9.897 -18.856,10.755 -17.357,11.354C-15.86,11.953 -14.295,12.252 -12.661,12.252C-11.463,12.252 -10.279,12.102 -9.108,11.803C-7.938,11.504 -6.861,11.068 -5.881,10.495C-4.901,9.924 -4.031,9.229 -3.267,8.412C-2.506,7.597 -1.907,6.697 -1.471,5.717L6.208,7.922C4.738,11.136 2.3,13.763 -1.103,15.805C-4.507,17.847 -8.468,18.869 -12.987,18.869" style="fill:white;fill-opacity:0.71;fill-rule:nonzero;"/>
    </g>
    <g transform="matrix(8.25794,0,0,8.25794,750.631,738.654)">
        <path d="M0,43.456L-8.985,43.456L-8.985,19.523C-8.985,15.493 -9.626,12.568 -10.905,10.742C-12.185,8.918 -14.078,8.006 -16.582,8.006C-17.889,8.006 -19.196,8.251 -20.503,8.742C-21.809,9.232 -23.035,9.925 -24.179,10.824C-25.322,11.723 -26.343,12.784 -27.241,14.01C-28.14,15.235 -28.834,16.582 -29.324,18.052L-29.324,43.456L-38.31,43.456L-38.31,0.736L-30.141,0.736L-30.141,9.313C-28.507,6.427 -26.139,4.154 -23.035,2.493C-19.931,0.832 -16.5,0 -12.743,0C-10.184,0 -8.087,0.464 -6.453,1.39C-4.82,2.316 -3.528,3.582 -2.573,5.188C-1.621,6.795 -0.955,8.646 -0.571,10.742C-0.193,12.839 0,15.059 0,17.399L0,43.456Z" style="fill:white;fill-opacity:0.71;fill-rule:nonzero;"/>
    </g>
    <g transform="matrix(8.25794,0,0,8.25794,1104.07,948.443)">
        <path d="M0,-6.535C-0.163,-8.332 -0.612,-9.992 -1.347,-11.518C-2.082,-13.041 -3.022,-14.336 -4.165,-15.397C-5.308,-16.46 -6.644,-17.288 -8.167,-17.889C-9.693,-18.487 -11.3,-18.787 -12.987,-18.787C-14.676,-18.787 -16.269,-18.487 -17.765,-17.889C-19.264,-17.288 -20.584,-16.46 -21.726,-15.397C-22.87,-14.336 -23.797,-13.041 -24.504,-11.518C-25.213,-9.992 -25.648,-8.332 -25.811,-6.535L0,-6.535ZM-12.987,18.869C-16.309,18.869 -19.331,18.283 -22.053,17.112C-24.777,15.942 -27.106,14.349 -29.038,12.334C-30.971,10.319 -32.468,7.978 -33.53,5.309C-34.592,2.642 -35.122,-0.191 -35.122,-3.186C-35.122,-6.18 -34.592,-9.026 -33.53,-11.721C-32.468,-14.417 -30.971,-16.786 -29.038,-18.828C-27.106,-20.87 -24.777,-22.476 -22.053,-23.648C-19.331,-24.817 -16.282,-25.404 -12.906,-25.404C-9.584,-25.404 -6.574,-24.803 -3.879,-23.607C-1.184,-22.408 1.115,-20.815 3.023,-18.828C4.929,-16.839 6.384,-14.526 7.393,-11.885C8.4,-9.243 8.904,-6.48 8.904,-3.594C8.904,-2.94 8.876,-2.328 8.822,-1.757C8.768,-1.184 8.713,-0.707 8.659,-0.327L-25.566,-0.327C-25.402,1.579 -24.953,3.294 -24.219,4.819C-23.483,6.344 -22.531,7.665 -21.36,8.78C-20.189,9.897 -18.855,10.755 -17.357,11.354C-15.86,11.953 -14.294,12.252 -12.66,12.252C-11.463,12.252 -10.278,12.102 -9.106,11.803C-7.937,11.504 -6.861,11.068 -5.881,10.495C-4.901,9.924 -4.03,9.229 -3.267,8.412C-2.505,7.597 -1.907,6.697 -1.469,5.717L6.209,7.922C4.738,11.136 2.3,13.763 -1.103,15.805C-4.506,17.847 -8.467,18.869 -12.987,18.869" style="fill:white;fill-opacity:0.71;fill-rule:nonzero;"/>
    </g>
    <g transform="matrix(8.25794,0,0,8.25794,1436.6,1030.06)">
        <path d="M0,-26.792C-3.485,-26.683 -6.576,-25.88 -9.271,-24.382C-11.966,-22.883 -13.886,-20.748 -15.03,-17.97L-15.03,8.168L-24.015,8.168L-24.015,-34.551L-15.683,-34.551L-15.683,-24.995C-14.213,-27.936 -12.293,-30.29 -9.925,-32.061C-7.556,-33.83 -5.011,-34.797 -2.288,-34.96L-0.939,-34.96C-0.587,-34.96 -0.274,-34.932 0,-34.878L0,-26.792Z" style="fill:white;fill-opacity:0.71;fill-rule:nonzero;"/>
    </g>
    <g transform="matrix(8.25794,0,0,8.25794,1868.27,677.95)">
        <path d="M0,43.619C-4.902,48.683 -10.537,51.215 -16.908,51.215C-20.776,51.215 -24.37,50.412 -27.691,48.806C-31.013,47.201 -33.899,45.036 -36.35,42.312C-38.799,39.589 -40.719,36.431 -42.107,32.837C-43.497,29.243 -44.19,25.486 -44.19,21.564C-44.19,17.644 -43.497,13.914 -42.107,10.374C-40.719,6.836 -38.799,3.731 -36.35,1.063C-33.899,-1.604 -30.986,-3.716 -27.609,-5.268C-24.234,-6.82 -20.558,-7.596 -16.581,-7.596C-11.027,-7.596 -6.371,-6.438 -2.614,-4.125C1.142,-1.809 3.974,1.255 5.881,5.065L-1.144,10.129C-2.724,6.972 -4.902,4.603 -7.678,3.024C-10.456,1.444 -13.507,0.654 -16.827,0.654C-19.551,0.654 -22.028,1.24 -24.26,2.41C-26.493,3.582 -28.399,5.134 -29.979,7.066C-31.559,9 -32.769,11.246 -33.613,13.805C-34.457,16.365 -34.879,19.032 -34.879,21.81C-34.879,24.75 -34.403,27.501 -33.45,30.06C-32.498,32.62 -31.191,34.852 -29.528,36.758C-27.869,38.664 -25.894,40.176 -23.606,41.292C-21.32,42.408 -18.842,42.965 -16.174,42.965C-13.232,42.965 -10.415,42.285 -7.719,40.924C-5.024,39.562 -2.451,37.411 0,34.47L0,28.262L-12.171,28.262L-12.171,21.483L7.677,21.483L7.677,50.807L0,50.807L0,43.619Z" style="fill:white;fill-opacity:0.71;fill-rule:nonzero;"/>
    </g>
    <g transform="matrix(8.25794,0,0,8.25794,2470.07,756.896)">
        <path d="M0,23.476L-0.011,23.47C4.334,10.43 -0.79,-4.33 -13.166,-11.415C-19.486,-15.032 -26.659,-16.166 -33.659,-14.683L-33.659,-6.778C-33.659,-6.807 -33.628,-6.84 -33.528,-6.867C-31.625,-7.385 -29.778,-7.64 -27.858,-7.64C-24.11,-7.64 -20.45,-6.664 -17.109,-4.752C-8.436,0.213 -4.697,10.275 -7.04,19.521L-13.659,15.823L-13.659,39.642L-11.16,38.265L7.172,27.63L0,23.476Z" style="fill:white;fill-opacity:0.71;fill-rule:nonzero;"/>
    </g>
    <g transform="matrix(8.25794,0,0,8.25794,2035.48,975.691)">
        <path d="M0,-23.476L0.011,-23.47C-4.334,-10.43 0.945,4.33 13.321,11.415C19.641,15.032 26.968,16.166 33.968,14.683L33.968,6.778C33.968,6.807 33.783,6.84 33.683,6.867C31.78,7.385 29.856,7.64 27.936,7.64C24.187,7.64 20.489,6.664 17.148,4.752C8.475,-0.213 4.371,-10.275 6.714,-19.521L12.968,-15.823L12.968,-39.642L10.815,-38.265L-7.345,-27.63L0,-23.476Z" style="fill:white;fill-opacity:0.71;fill-rule:nonzero;"/>
    </g>
    <g transform="matrix(8.39402,0,0,8.39402,943.277,134.566)">
        <path d="M0,23.476L-0.011,23.47C4.334,10.43 -1.111,-4.33 -13.488,-11.415C-19.807,-15.032 -27.301,-16.166 -34.301,-14.683L-34.301,-6.778C-34.301,-6.807 -33.95,-6.84 -33.849,-6.867C-31.946,-7.385 -29.939,-7.64 -28.019,-7.64C-24.271,-7.64 -20.53,-6.664 -17.189,-4.752C-8.516,0.213 -4.558,10.275 -6.901,19.521L-13.301,15.823L-13.301,39.642L-10.981,38.265L7.262,27.63L0,23.476Z" style="fill:white;fill-rule:nonzero;"/>
    </g>
    <g transform="matrix(8.39402,0,0,8.39402,501.525,356.966)">
        <path d="M0,-23.476L0.011,-23.47C-4.334,-10.43 1.124,4.33 13.5,11.415C19.82,15.032 27.326,16.166 34.326,14.683L34.326,6.778C34.326,6.807 33.962,6.84 33.861,6.867C31.959,7.385 29.945,7.64 28.025,7.64C24.277,7.64 20.533,6.664 17.193,4.752C8.519,-0.213 4.573,-10.275 6.915,-19.521L13.326,-15.823L13.326,-39.642L10.993,-38.265L-7.255,-27.63L0,-23.476Z" style="fill:white;fill-rule:nonzero;"/>
    </g>
    <g transform="matrix(8.39402,0,0,8.39402,338.89,246.61)">
        <path d="M0,-0.161C0,-3.159 -0.415,-5.916 -1.244,-8.433C-2.075,-10.949 -3.293,-13.105 -4.899,-14.899C-6.505,-16.693 -8.46,-18.098 -10.762,-19.116C-13.065,-20.132 -15.689,-20.642 -18.633,-20.642L-29.878,-20.642L-29.878,20.481L-18.633,20.481C-15.635,20.481 -12.971,19.959 -10.642,18.914C-8.312,17.871 -6.358,16.424 -4.779,14.577C-3.2,12.73 -2.008,10.549 -1.205,8.032C-0.402,5.516 0,2.785 0,-0.161M-38.873,28.432L-38.873,-28.593L-18.633,-28.593C-14.029,-28.593 -9.999,-27.843 -6.546,-26.345C-3.092,-24.845 -0.201,-22.811 2.129,-20.24C4.458,-17.67 6.211,-14.658 7.39,-11.205C8.567,-7.751 9.156,-4.069 9.156,-0.161C9.156,4.176 8.5,8.1 7.189,11.605C5.876,15.113 4.016,18.111 1.606,20.601C-0.803,23.091 -3.722,25.019 -7.148,26.384C-10.575,27.749 -14.404,28.432 -18.633,28.432L-38.873,28.432Z" style="fill:white;fill-rule:nonzero;"/>
    </g>
    <g transform="matrix(8.39402,0,0,8.39402,1126.33,343.684)">
        <path d="M0,-23.291L0,16.867L-8.995,16.867L-8.995,-40.158L-1.927,-40.158L30.681,0.965L30.681,-40.077L39.757,-40.077L39.757,16.867L32.287,16.867L0,-23.291Z" style="fill:white;fill-rule:nonzero;"/>
    </g>
    <g transform="matrix(8.39402,0,0,8.39402,1667.69,343.684)">
        <path d="M0,-23.291L0,16.867L-8.995,16.867L-8.995,-40.158L-1.927,-40.158L30.681,0.965L30.681,-40.077L39.757,-40.077L39.757,16.867L32.287,16.867L0,-23.291Z" style="fill:white;fill-rule:nonzero;"/>
    </g>
    <g transform="matrix(8.39402,0,0,8.39402,2384.35,192.682)">
        <path d="M0,12.689L-9.156,-11.808L-18.633,12.689L0,12.689ZM-13.092,-22.168L-5.221,-22.168L17.268,34.857L7.791,34.857L1.767,19.356L-20.24,19.356L-26.183,34.857L-35.741,34.857L-13.092,-22.168Z" style="fill:white;fill-rule:nonzero;"/>
    </g>
</svg>
