<svg width="100%" height="100%" viewBox="0 0 760 760" version="1.1" xmlns="http://www.w3.org/2000/svg" xmlns:xlink="http://www.w3.org/1999/xlink" xml:space="preserve" xmlns:serif="http://www.serif.com/" style="fill-rule:evenodd;clip-rule:evenodd;stroke-linejoin:round;stroke-miterlimit:2;">
    <g transform="matrix(1,0,0,1,-100,-100)">
        <path d="M674.5,783.5C675.473,781.932 675.64,780.265 675,778.5C661.681,753.646 640.847,742.646 612.5,745.5C608.806,736.764 602.473,730.431 593.5,726.5C592.5,706.511 592.167,686.511 592.5,666.5C604.619,662.883 613.119,655.216 618,643.5C619.477,639.571 620.644,635.571 621.5,631.5C622.497,612.341 622.83,593.007 622.5,573.5C627.363,573.819 632.03,573.486 636.5,572.5C638.89,570.98 641.557,569.98 644.5,569.5C644.955,572.203 645.622,574.87 646.5,577.5C641.713,587.92 642.88,597.586 650,606.5C651.376,615.496 651.542,624.496 650.5,633.5C629.003,647.827 624.17,666.494 636,689.5C638.921,693.092 642.421,695.925 646.5,698C653.511,700.075 658.677,697.908 662,691.5C662.689,685.81 662.522,680.143 661.5,674.5C664.155,662.349 671.155,658.849 682.5,664C684.617,665.731 686.117,667.898 687,670.5C687.12,677.173 687.12,683.839 687,690.5C691.42,698.969 697.92,700.802 706.5,696C722.078,681.492 724.578,664.992 714,646.5C709.828,641.242 704.828,636.909 699,633.5C697.67,624.021 696.503,614.521 695.5,605C697.301,597.959 697.801,590.792 697,583.5C695.437,578.046 693.104,573.046 690,568.5C685.963,555.601 681.797,542.768 677.5,530C681.63,512.599 676.296,498.932 661.5,489C657.797,486.646 653.797,485.146 649.5,484.5C649.321,478.31 646.321,474.143 640.5,472C629.558,470.76 618.558,470.093 607.5,470C602.874,465.853 597.541,463.02 591.5,461.5C591.082,460.778 590.416,460.278 589.5,460C577.171,459.5 564.838,459.333 552.5,459.5L552.5,452.5C565.504,452.667 578.504,452.5 591.5,452C613.241,448.923 626.741,436.757 632,415.5C632.93,410.201 633.597,404.867 634,399.5C638.537,398.463 641.704,395.796 643.5,391.5C657.687,387.814 666.187,378.814 669,364.5C669.667,343.833 669.667,323.167 669,302.5C664.657,290.322 656.157,282.989 643.5,280.5C641.229,276.55 637.896,274.216 633.5,273.5C635.408,249.134 625.741,231.301 604.5,220C601.343,218.422 598.009,217.422 594.5,217C580.171,216.5 565.837,216.333 551.5,216.5C547.558,199.055 536.891,187.888 519.5,183C492.833,182.333 466.167,182.333 439.5,183C422.134,187.864 411.467,199.031 407.5,216.5C392.163,216.333 376.83,216.5 361.5,217C336.187,226.777 324.354,245.277 326,272.5C321.534,273.788 318.034,276.454 315.5,280.5C302.241,283.925 293.741,292.258 290,305.5C289.046,326.551 289.379,347.551 291,368.5C294.807,380.807 302.974,388.473 315.5,391.5C317.822,396.173 321.489,398.84 326.5,399.5C325.618,426.932 338.285,444.432 364.5,452C378.829,452.5 393.163,452.667 407.5,452.5L407.5,459.5C394.989,459.171 382.655,459.505 370.5,460.5C363.363,462.068 357.03,465.235 351.5,470C340.833,470.333 330.167,470.667 319.5,471C313.219,473.431 309.886,477.931 309.5,484.5C295.446,488.049 285.946,496.715 281,510.5C280.533,517.863 280.533,525.197 281,532.5C275.727,549.949 269.394,566.949 262,583.5C261.333,586.833 261.333,590.167 262,593.5C263.356,597.398 264.189,601.398 264.5,605.5C263.002,614.828 261.502,624.162 260,633.5C239.689,646.762 234.356,664.428 244,686.5C247.214,691.382 251.381,695.215 256.5,698C263.867,699.953 269.033,697.453 272,690.5C272.56,685.319 272.393,680.152 271.5,675C272.595,665.452 277.929,661.119 287.5,662C294.354,663.869 297.687,668.369 297.5,675.5C296.577,680.483 296.41,685.483 297,690.5C300.558,698.443 306.391,700.61 314.5,697C327.388,687.352 332.221,674.519 329,658.5C325.52,647.035 318.52,638.702 308,633.5C307.161,620.518 309.495,608.185 315,596.5C316.218,589.688 315.385,583.188 312.5,577C312.923,574.367 314.09,572.201 316,570.5C323.002,572.363 330.169,573.03 337.5,572.5C337.044,594.22 337.544,615.887 339,637.5C343.277,651.94 352.444,661.607 366.5,666.5L366.5,727.5C357.466,730.187 350.8,735.854 346.5,744.5C323.389,742.815 304.555,750.815 290,768.5C287.306,772.554 285.139,776.888 283.5,781.5C283.863,782.183 284.196,782.85 284.5,783.5C282.952,783.179 282.285,782.179 282.5,780.5C279.984,780.245 277.65,779.411 275.5,778C192.914,719.448 142.081,639.948 123,539.5C105.852,415.451 140.686,309.118 227.5,220.5C321.929,133.321 432.595,102.154 559.5,127C618.2,141.015 670.2,167.681 715.5,207C769.382,253.573 806.549,311.073 827,379.5C858.436,499.651 836.436,608.317 761,705.5C748.841,719.658 736.341,733.491 723.5,747C714.137,753.031 705.47,760.031 697.5,768C689.823,773.17 682.156,778.337 674.5,783.5Z" style="fill:rgb(156,163,175);"/>
    </g>
    <g transform="matrix(1,0,0,1,-100,-100)">
        <path d="M552.5,452.5C551.527,454.948 551.194,457.615 551.5,460.5C564.87,460.222 578.203,460.555 591.5,461.5C597.541,463.02 602.874,465.853 607.5,470C618.558,470.093 629.558,470.76 640.5,472C646.321,474.143 649.321,478.31 649.5,484.5C653.797,485.146 657.797,486.646 661.5,489C676.296,498.932 681.63,512.599 677.5,530C681.797,542.768 685.963,555.601 690,568.5C693.104,573.046 695.437,578.046 697,583.5C697.801,590.792 697.301,597.959 695.5,605C696.503,614.521 697.67,624.021 699,633.5C704.828,636.909 709.828,641.242 714,646.5C724.578,664.992 722.078,681.492 706.5,696C697.92,700.802 691.42,698.969 687,690.5C687.12,683.839 687.12,677.173 687,670.5C686.117,667.898 684.617,665.731 682.5,664C671.155,658.849 664.155,662.349 661.5,674.5C662.522,680.143 662.689,685.81 662,691.5C658.677,697.908 653.511,700.075 646.5,698C642.421,695.925 638.921,693.092 636,689.5C624.17,666.494 629.003,647.827 650.5,633.5C651.542,624.496 651.376,615.496 650,606.5C642.88,597.586 641.713,587.92 646.5,577.5C645.622,574.87 644.955,572.203 644.5,569.5C641.557,569.98 638.89,570.98 636.5,572.5L621.5,572.5L621.5,631.5C620.644,635.571 619.477,639.571 618,643.5C613.119,655.216 604.619,662.883 592.5,666.5C592.167,686.511 592.5,706.511 593.5,726.5C602.473,730.431 608.806,736.764 612.5,745.5C640.847,742.646 661.681,753.646 675,778.5C675.64,780.265 675.473,781.932 674.5,783.5C670.167,786.167 665.833,788.833 661.5,791.5C660.624,791.631 659.957,791.298 659.5,790.5C651.233,771.864 636.9,763.198 616.5,764.5C616.073,773.757 611.407,779.59 602.5,782C567.833,782.667 533.167,782.667 498.5,782C491.059,777.298 487.059,770.465 486.5,761.5C481.804,758.921 477.137,758.921 472.5,761.5C472.649,771.722 467.983,778.555 458.5,782C423.833,782.667 389.167,782.667 354.5,782C346.656,778.815 342.989,772.982 343.5,764.5C322.607,762.743 307.94,771.409 299.5,790.5C299.043,791.298 298.376,791.631 297.5,791.5C293.167,788.833 288.833,786.167 284.5,783.5C284.196,782.85 283.863,782.183 283.5,781.5C285.139,776.888 287.306,772.554 290,768.5C304.555,750.815 323.389,742.815 346.5,744.5C350.8,735.854 357.466,730.187 366.5,727.5L366.5,666.5C352.444,661.607 343.277,651.94 339,637.5C337.544,615.887 337.044,594.22 337.5,572.5C330.169,573.03 323.002,572.363 316,570.5C314.09,572.201 312.923,574.367 312.5,577C315.385,583.188 316.218,589.688 315,596.5C309.495,608.185 307.161,620.518 308,633.5C318.52,638.702 325.52,647.035 329,658.5C332.221,674.519 327.388,687.352 314.5,697C306.391,700.61 300.558,698.443 297,690.5C296.41,685.483 296.577,680.483 297.5,675.5C297.687,668.369 294.354,663.869 287.5,662C277.929,661.119 272.595,665.452 271.5,675C272.393,680.152 272.56,685.319 272,690.5C269.033,697.453 263.867,699.953 256.5,698C251.381,695.215 247.214,691.382 244,686.5C234.356,664.428 239.689,646.762 260,633.5C261.502,624.162 263.002,614.828 264.5,605.5C264.189,601.398 263.356,597.398 262,593.5C261.333,590.167 261.333,586.833 262,583.5C269.394,566.949 275.727,549.949 281,532.5C280.533,525.197 280.533,517.863 281,510.5C285.946,496.715 295.446,488.049 309.5,484.5C309.886,477.931 313.219,473.431 319.5,471C330.167,470.667 340.833,470.333 351.5,470C357.03,465.235 363.363,462.068 370.5,460.5L408.5,460.5C408.806,457.615 408.473,454.948 407.5,452.5C393.163,452.667 378.829,452.5 364.5,452C338.285,444.432 325.618,426.932 326.5,399.5C321.489,398.84 317.822,396.173 315.5,391.5C302.974,388.473 294.807,380.807 291,368.5C289.379,347.551 289.046,326.551 290,305.5C293.741,292.258 302.241,283.925 315.5,280.5C318.034,276.454 321.534,273.788 326,272.5C324.354,245.277 336.187,226.777 361.5,217C376.83,216.5 392.163,216.333 407.5,216.5C411.467,199.031 422.134,187.864 439.5,183C466.167,182.333 492.833,182.333 519.5,183C536.891,187.888 547.558,199.055 551.5,216.5C565.837,216.333 580.171,216.5 594.5,217C598.009,217.422 601.343,218.422 604.5,220C625.741,231.301 635.408,249.134 633.5,273.5C637.896,274.216 641.229,276.55 643.5,280.5C656.157,282.989 664.657,290.322 669,302.5C669.667,323.167 669.667,343.833 669,364.5C666.187,378.814 657.687,387.814 643.5,391.5C641.704,395.796 638.537,398.463 634,399.5C633.597,404.867 632.93,410.201 632,415.5C626.741,436.757 613.241,448.923 591.5,452C578.504,452.5 565.504,452.667 552.5,452.5Z" style="fill:rgb(31,41,55);"/>
    </g>
    <g transform="matrix(1,0,0,1,-100,-100)">
        <path d="M525.5,206.5C525.423,207.75 524.756,208.583 523.5,209C500.833,209.333 478.167,209.667 455.5,210C451.834,210.516 449.168,212.349 447.5,215.5C440.745,216.123 434.412,215.456 428.5,213.5C431.059,207.853 435.392,204.02 441.5,202C466.5,201.333 491.5,201.333 516.5,202C519.806,202.986 522.806,204.486 525.5,206.5Z" style="fill:rgb(248,248,248);"/>
    </g>
    <g transform="matrix(1,0,0,1,-100,-100)">
        <path d="M525.5,206.5C528.277,208.951 530.277,211.951 531.5,215.5L447.5,215.5C449.168,212.349 451.834,210.516 455.5,210C478.167,209.667 500.833,209.333 523.5,209C524.756,208.583 525.423,207.75 525.5,206.5Z" style="fill:rgb(201,201,201);"/>
    </g>
    <g transform="matrix(1,0,0,1,-100,-100)">
        <path d="M428.5,213.5C434.412,215.456 440.745,216.123 447.5,215.5L531.5,215.5C497.004,216.498 462.337,216.832 427.5,216.5C427.263,215.209 427.596,214.209 428.5,213.5Z" style="fill:rgb(93,93,93);"/>
    </g>
    <g transform="matrix(1,0,0,1,-100,-100)">
        <path d="M608.5,246.5C529.506,248.331 450.173,249.165 370.5,249C363.21,252.072 359.21,257.572 358.5,265.5C357.667,318.665 357.167,371.998 357,425.5C355.855,424.316 354.688,424.316 353.5,425.5C349.762,422.374 347.262,418.374 346,413.5C345.333,360.833 345.333,308.167 346,255.5C349.833,246.333 356.333,239.833 365.5,236C441.167,235.333 516.833,235.333 592.5,236C599.051,237.73 604.384,241.23 608.5,246.5Z" style="fill:rgb(252,252,252);"/>
    </g>
    <g transform="matrix(1,0,0,1,-100,-100)">
        <path d="M608.5,246.5C611.357,249.546 613.19,253.213 614,257.5C614.667,308.5 614.667,359.5 614,410.5C611.176,422.658 603.676,430.158 591.5,433C516.167,433.667 440.833,433.667 365.5,433C362.552,431.763 359.885,430.263 357.5,428.5C358.499,374.336 358.832,320.003 358.5,265.5C359.21,257.572 363.21,252.072 370.5,249C450.173,249.165 529.506,248.331 608.5,246.5Z" style="fill:rgb(199,199,199);"/>
    </g>
    <g transform="matrix(1,0,0,1,-100,-100)">
        <path d="M366.5,254.5C375.341,254.463 377.341,257.963 372.5,265C365.144,266.817 362.311,263.983 364,256.5C364.995,255.934 365.828,255.267 366.5,254.5Z" style="fill:rgb(31,41,55);"/>
    </g>
    <g transform="matrix(1,0,0,1,-100,-100)">
        <path d="M586.5,254.5C595.487,253.665 597.82,257.165 593.5,265C584.939,265.609 582.605,262.109 586.5,254.5Z" style="fill:rgb(31,41,55);"/>
    </g>
    <g transform="matrix(1,0,0,1,-100,-100)">
        <path d="M455.5,309.5C463.166,331.67 458.499,350.837 441.5,367C418.551,382.093 396.884,380.593 376.5,362.5C359.35,340.669 359.183,318.669 376,296.5C397.167,277.741 419.334,276.574 442.5,293C447.686,297.895 452.019,303.395 455.5,309.5Z" style="fill:rgb(31,41,55);"/>
    </g>
    <g transform="matrix(1,0,0,1,-100,-100)">
        <path d="M591.5,308.5C601.193,335.264 594.193,356.43 570.5,372C557.874,377.997 544.874,378.997 531.5,375C525.456,372.316 519.789,369.149 514.5,365.5C493.736,340.085 494.736,315.585 517.5,292C541.636,276.411 564.136,278.577 585,298.5C587.783,301.447 589.95,304.78 591.5,308.5Z" style="fill:rgb(31,41,55);"/>
    </g>
    <g transform="matrix(1,0,0,1,-100,-100)">
        <path d="M552.5,293.5C547.463,293.413 542.463,293.746 537.5,294.5C540.186,293.009 543.186,292.343 546.5,292.5C548.696,292.505 550.696,292.838 552.5,293.5Z" style="fill:rgb(158,158,158);"/>
    </g>
    <g transform="matrix(1,0,0,1,-100,-100)">
        <path d="M552.5,293.5C569.101,295.932 579.601,305.266 584,321.5C586.694,340.616 579.527,354.45 562.5,363C543.877,370.014 528.71,365.514 517,349.5C506.418,328.948 510.252,311.781 528.5,298C531.327,296.336 534.327,295.17 537.5,294.5C542.463,293.746 547.463,293.413 552.5,293.5Z" style="fill:rgb(241,241,241);"/>
    </g>
    <g transform="matrix(1,0,0,1,-100,-100)">
        <path d="M405.5,292.5C419.867,291.565 431.701,296.565 441,307.5C451.734,326.615 449.234,343.782 433.5,359C414.241,371.005 397.074,368.505 382,351.5C373.759,337.385 373.426,323.051 381,308.5C387.306,300.267 395.473,294.934 405.5,292.5Z" style="fill:rgb(241,241,241);"/>
    </g>
    <g transform="matrix(1,0,0,1,-100,-100)">
        <path d="M315.5,298.5C317.468,306.433 318.135,314.766 317.5,323.5C316.833,323.5 316.5,323.833 316.5,324.5C314.533,324.261 312.699,324.594 311,325.5C310.5,336.495 310.333,347.495 310.5,358.5C309.833,360.833 309.167,363.167 308.5,365.5C307.347,345.907 307.18,326.24 308,306.5C309.377,302.721 311.877,300.054 315.5,298.5Z" style="fill:rgb(247,247,247);"/>
    </g>
    <g transform="matrix(1,0,0,1,-100,-100)">
        <path d="M643.5,298.5C647.793,300.104 650.459,303.104 651.5,307.5L651.5,323.5L642.5,323.5C642.174,314.983 642.507,306.65 643.5,298.5Z" style="fill:rgb(250,250,250);"/>
    </g>
    <g transform="matrix(1,0,0,1,-100,-100)">
        <path d="M403.5,301.5C420.444,299.219 432.277,305.886 439,321.5C441.145,347.355 429.312,359.188 403.5,357C387.46,350.631 380.96,338.798 384,321.5C388.021,312.313 394.521,305.647 403.5,301.5Z" style="fill:rgb(31,41,55);"/>
    </g>
    <g transform="matrix(1,0,0,1,-100,-100)">
        <path d="M556.5,356.5C551.537,357.254 546.537,357.587 541.5,357.5C523.452,351.08 516.619,338.414 521,319.5C530.583,300.974 544.749,296.474 563.5,306C576.197,316.464 579.031,329.298 572,344.5C568.381,350.553 563.214,354.553 556.5,356.5Z" style="fill:rgb(31,41,55);"/>
    </g>
    <g transform="matrix(1,0,0,1,-100,-100)">
        <path d="M400.5,314.5C408.662,314.498 411.828,318.498 410,326.5C407.459,331.069 403.625,332.569 398.5,331C391.44,324.48 392.107,318.98 400.5,314.5Z" style="fill:rgb(243,243,243);"/>
    </g>
    <g transform="matrix(1,0,0,1,-100,-100)">
        <path d="M536.5,314.5C544.538,314.061 548.372,317.727 548,325.5C545.598,331.092 541.431,332.925 535.5,331C528.671,325.003 529.004,319.503 536.5,314.5Z" style="fill:rgb(241,241,241);"/>
    </g>
    <g transform="matrix(1,0,0,1,-100,-100)">
        <path d="M316.5,324.5L316.5,358.5L310.5,358.5C310.333,347.495 310.5,336.495 311,325.5C312.699,324.594 314.533,324.261 316.5,324.5Z" style="fill:rgb(204,204,204);"/>
    </g>
    <g transform="matrix(1,0,0,1,-100,-100)">
        <path d="M643.5,298.5C642.507,306.65 642.174,314.983 642.5,323.5L642.5,339.5L641.5,339.5C641.167,325.484 641.501,311.484 642.5,297.5C643.107,297.624 643.44,297.957 643.5,298.5Z" style="fill:rgb(158,158,157);"/>
    </g>
    <g transform="matrix(1,0,0,1,-100,-100)">
        <rect x="642.5" y="323.5" width="9" height="16" style="fill:rgb(212,210,208);"/>
    </g>
    <g transform="matrix(1,0,0,1,-100,-100)">
        <path d="M651.5,307.5C652.833,326.167 652.833,344.833 651.5,363.5C651.666,356.159 651.5,348.826 651,341.5C649.663,343.004 647.996,344.004 646,344.5C645.517,345.448 645.351,346.448 645.5,347.5L642.5,347.5C642.174,356.017 642.507,364.35 643.5,372.5C643.44,373.043 643.107,373.376 642.5,373.5C641.501,362.186 641.168,350.853 641.5,339.5L651.5,339.5L651.5,307.5Z" style="fill:rgb(123,123,121);"/>
    </g>
    <g transform="matrix(1,0,0,1,-100,-100)">
        <path d="M358.5,265.5C358.832,320.003 358.499,374.336 357.5,428.5C355.77,427.974 354.436,426.974 353.5,425.5C354.688,424.316 355.855,424.316 357,425.5C357.167,371.998 357.667,318.665 358.5,265.5Z" style="fill:rgb(224,224,224);"/>
    </g>
    <g transform="matrix(1,0,0,1,-100,-100)">
        <path d="M651.5,363.5C649.98,367.553 647.314,370.553 643.5,372.5C642.507,364.35 642.174,356.017 642.5,347.5L645.5,347.5C645.351,346.448 645.517,345.448 646,344.5C647.996,344.004 649.663,343.004 651,341.5C651.5,348.826 651.666,356.159 651.5,363.5Z" style="fill:rgb(143,143,143);"/>
    </g>
    <g transform="matrix(1,0,0,1,-100,-100)">
        <path d="M556.5,356.5C556.389,357.117 556.056,357.617 555.5,358C550.648,358.815 545.981,358.648 541.5,357.5C546.537,357.587 551.537,357.254 556.5,356.5Z" style="fill:rgb(177,177,177);"/>
    </g>
    <g transform="matrix(1,0,0,1,-100,-100)">
        <path d="M315.5,298.5C316.601,297.402 317.934,297.235 319.5,298C318.167,323 318.167,348 319.5,373C317.934,373.765 316.601,373.598 315.5,372.5C317.485,356.534 318.152,340.201 317.5,323.5C318.135,314.766 317.468,306.433 315.5,298.5Z" style="fill:rgb(31,31,31);"/>
    </g>
    <g transform="matrix(1,0,0,1,-100,-100)">
        <path d="M317.5,323.5C318.152,340.201 317.485,356.534 315.5,372.5C312.509,370.877 310.176,368.543 308.5,365.5C309.167,363.167 309.833,360.833 310.5,358.5L316.5,358.5L316.5,324.5C316.5,323.833 316.833,323.5 317.5,323.5Z" style="fill:rgb(140,140,139);"/>
    </g>
    <g transform="matrix(1,0,0,1,-100,-100)">
        <path d="M591.5,308.5C595.29,312.047 598.124,316.38 600,321.5C605.568,343.788 599.735,362.288 582.5,377C566.684,386.361 550.018,388.028 532.5,382C525.006,378 519.006,372.5 514.5,365.5C519.789,369.149 525.456,372.316 531.5,375C544.874,378.997 557.874,377.997 570.5,372C594.193,356.43 601.193,335.264 591.5,308.5Z" style="fill:rgb(133,133,132);"/>
    </g>
    <g transform="matrix(1,0,0,1,-100,-100)">
        <path d="M455.5,309.5C460.239,314.454 463.406,320.454 465,327.5C468.13,349.143 460.963,366.31 443.5,379C424.041,389.95 405.374,388.95 387.5,376C383.767,371.929 379.767,368.262 375.5,365C376.252,364.329 376.586,363.496 376.5,362.5C396.884,380.593 418.551,382.093 441.5,367C458.499,350.837 463.166,331.67 455.5,309.5Z" style="fill:rgb(135,135,134);"/>
    </g>
    <g transform="matrix(1,0,0,1,-100,-100)">
        <path d="M421.5,389.5C460.33,388.501 499.33,388.168 538.5,388.5C538.828,400.012 538.495,411.346 537.5,422.5L537.5,389.5L421.5,389.5Z" style="fill:rgb(107,107,107);"/>
    </g>
    <g transform="matrix(1,0,0,1,-100,-100)">
        <rect x="421.5" y="389.5" width="116" height="33" style="fill:rgb(31,41,55);"/>
    </g>
    <g transform="matrix(1,0,0,1,-100,-100)">
        <rect x="432.5" y="400.5" width="13" height="11" style="fill:rgb(248,248,248);"/>
    </g>
    <g transform="matrix(1,0,0,1,-100,-100)">
        <rect x="452.5" y="400.5" width="13" height="11" style="fill:rgb(249,249,249);"/>
    </g>
    <g transform="matrix(1,0,0,1,-100,-100)">
        <rect x="473.5" y="400.5" width="13" height="10" style="fill:rgb(250,250,250);"/>
    </g>
    <g transform="matrix(1,0,0,1,-100,-100)">
        <rect x="493.5" y="400.5" width="13" height="11" style="fill:rgb(249,249,248);"/>
    </g>
    <g transform="matrix(1,0,0,1,-100,-100)">
        <rect x="514.5" y="400.5" width="12" height="11" style="fill:rgb(249,249,249);"/>
    </g>
    <g transform="matrix(1,0,0,1,-100,-100)">
        <path d="M493.5,400.5C497.97,399.514 502.637,399.181 507.5,399.5C507.817,403.702 507.483,407.702 506.5,411.5L506.5,400.5L493.5,400.5Z" style="fill:rgb(110,110,109);"/>
    </g>
    <g transform="matrix(1,0,0,1,-100,-100)">
        <path d="M452.5,400.5C456.97,399.514 461.637,399.181 466.5,399.5C466.817,403.702 466.483,407.702 465.5,411.5L465.5,400.5L452.5,400.5Z" style="fill:rgb(123,123,123);"/>
    </g>
    <g transform="matrix(1,0,0,1,-100,-100)">
        <path d="M526.5,400.5L514.5,400.5L514.5,411.5C513.517,407.702 513.183,403.702 513.5,399.5C518.032,399.182 522.366,399.515 526.5,400.5Z" style="fill:rgb(137,137,137);"/>
    </g>
    <g transform="matrix(1,0,0,1,-100,-100)">
        <path d="M366.5,409.5C372.378,409.157 375.211,411.824 375,417.5C371.645,422.31 367.979,422.644 364,418.5C363.333,416.833 363.333,415.167 364,413.5C365.085,412.264 365.918,410.931 366.5,409.5Z" style="fill:rgb(31,41,55);"/>
    </g>
    <g transform="matrix(1,0,0,1,-100,-100)">
        <path d="M473.5,400.5L473.5,410.5L486.5,410.5C482.03,411.486 477.363,411.819 472.5,411.5C472.185,407.629 472.518,403.962 473.5,400.5Z" style="fill:rgb(185,185,185);"/>
    </g>
    <g transform="matrix(1,0,0,1,-100,-100)">
        <path d="M587.5,409.5C593.785,409.288 596.285,412.288 595,418.5C591.667,422.5 588.333,422.5 585,418.5C583.927,414.9 584.76,411.9 587.5,409.5Z" style="fill:rgb(31,41,55);"/>
    </g>
    <g transform="matrix(1,0,0,1,-100,-100)">
        <rect x="426.5" y="452.5" width="18" height="7" style="fill:rgb(200,200,200);"/>
    </g>
    <g transform="matrix(1,0,0,1,-100,-100)">
        <rect x="444.5" y="452.5" width="88" height="7" style="fill:rgb(135,135,135);"/>
    </g>
    <g transform="matrix(1,0,0,1,-100,-100)">
        <path d="M407.5,452.5C408.473,454.948 408.806,457.615 408.5,460.5L370.5,460.5C382.655,459.505 394.989,459.171 407.5,459.5L407.5,452.5Z" style="fill:rgb(88,88,88);"/>
    </g>
    <g transform="matrix(1,0,0,1,-100,-100)">
        <path d="M552.5,452.5L552.5,459.5C564.838,459.333 577.171,459.5 589.5,460C590.416,460.278 591.082,460.778 591.5,461.5C578.203,460.555 564.87,460.222 551.5,460.5C551.194,457.615 551.527,454.948 552.5,452.5Z" style="fill:rgb(89,89,89);"/>
    </g>
    <g transform="matrix(1,0,0,1,-100,-100)">
        <path d="M599.5,490.5C594.944,492.442 589.944,493.108 584.5,492.5C515.833,492.333 447.166,492.5 378.5,493C376.382,494.049 374.716,495.549 373.5,497.5C372.833,498.5 372.167,499.5 371.5,500.5C370.883,500.611 370.383,500.944 370,501.5C369.764,503.764 369.264,505.931 368.5,508C369.468,552.35 369.801,596.683 369.5,641C369.431,642.986 368.765,644.486 367.5,645.5C364.236,644.073 361.736,641.739 360,638.5C359.275,636.051 358.275,633.717 357,631.5C356.333,586.833 356.333,542.167 357,497.5C359.642,488.854 365.142,482.688 373.5,479C443.5,478.333 513.5,478.333 583.5,479C590.516,480.659 595.85,484.492 599.5,490.5Z" style="fill:rgb(245,245,245);"/>
    </g>
    <g transform="matrix(1,0,0,1,-100,-100)">
        <path d="M325.5,486.5L336.5,486.5L336.5,499.5L328.5,499.5L328.5,524.5L325.5,524.5L325.5,486.5Z" style="fill:rgb(253,253,253);"/>
    </g>
    <g transform="matrix(1,0,0,1,-100,-100)">
        <rect x="621.5" y="485.5" width="12" height="10" style="fill:rgb(249,249,249);"/>
    </g>
    <g transform="matrix(1,0,0,1,-100,-100)">
        <path d="M599.5,490.5C600.338,490.842 600.672,491.508 600.5,492.5C601.48,538.81 601.813,585.143 601.5,631.5C599.605,639.902 594.605,645.735 586.5,649C514.999,649.832 443.665,649.665 372.5,648.5L585.5,648.5C585.815,644.629 585.482,640.962 584.5,637.5C588.742,633.388 588.409,629.721 583.5,626.5C584.833,607.178 585.5,587.512 585.5,567.5C585.5,547.488 584.833,527.822 583.5,508.5C588.169,505.348 588.502,501.848 584.5,498C582.527,497.505 580.527,497.338 578.5,497.5C580.265,496.539 582.265,496.205 584.5,496.5L584.5,492.5C589.944,493.108 594.944,492.442 599.5,490.5Z" style="fill:rgb(135,135,135);"/>
    </g>
    <g transform="matrix(1,0,0,1,-100,-100)">
        <rect x="621.5" y="495.5" width="12" height="30" style="fill:rgb(198,198,197);"/>
    </g>
    <g transform="matrix(1,0,0,1,-100,-100)">
        <path d="M371.5,500.5C372.167,499.5 372.833,498.5 373.5,497.5C381.702,495.534 384.535,498.534 382,506.5C378.073,509.448 374.739,508.782 372,504.5C371.51,503.207 371.343,501.873 371.5,500.5Z" style="fill:rgb(31,41,55);"/>
    </g>
    <g transform="matrix(1,0,0,1,-100,-100)">
        <path d="M578.5,497.5C580.527,497.338 582.527,497.505 584.5,498C588.502,501.848 588.169,505.348 583.5,508.5C580.592,508.738 578.258,507.738 576.5,505.5C574.832,502.135 575.498,499.468 578.5,497.5Z" style="fill:rgb(31,41,55);"/>
    </g>
    <g transform="matrix(1,0,0,1,-100,-100)">
        <path d="M309.5,499.5C309.666,503.514 309.499,507.514 309,511.5C303.49,517.747 300.99,524.913 301.5,533C300.906,533.464 300.239,533.631 299.5,533.5C291.439,518.672 294.773,507.338 309.5,499.5Z" style="fill:rgb(247,247,247);"/>
    </g>
    <g transform="matrix(1,0,0,1,-100,-100)">
        <path d="M325.5,486.5L325.5,485.5L337.5,485.5L337.5,525.5L325.5,525.5L325.5,524.5L328.5,524.5L328.5,499.5L336.5,499.5L336.5,486.5L325.5,486.5Z" style="fill:rgb(206,206,205);"/>
    </g>
    <g transform="matrix(1,0,0,1,-100,-100)">
        <path d="M621.5,485.5C625.634,484.515 629.968,484.182 634.5,484.5L634.5,525.5L633.5,525.5L633.5,485.5L621.5,485.5Z" style="fill:rgb(132,132,132);"/>
    </g>
    <g transform="matrix(1,0,0,1,-100,-100)">
        <path d="M661.5,530.5C659.055,522.951 655.055,516.284 649.5,510.5C649.177,506.774 649.511,503.107 650.5,499.5C663.522,506.568 667.189,516.901 661.5,530.5Z" style="fill:rgb(194,194,194);"/>
    </g>
    <g transform="matrix(1,0,0,1,-100,-100)">
        <path d="M649.5,510.5C655.055,516.284 659.055,522.951 661.5,530.5C658.936,534.965 655.269,538.298 650.5,540.5C649.501,530.522 649.168,520.522 649.5,510.5Z" style="fill:rgb(139,139,139);"/>
    </g>
    <g transform="matrix(1,0,0,1,-100,-100)">
        <path d="M309.5,499.5C310.496,512.99 310.829,526.656 310.5,540.5C306.053,539.385 302.387,537.052 299.5,533.5C300.239,533.631 300.906,533.464 301.5,533C300.99,524.913 303.49,517.747 309,511.5C309.499,507.514 309.666,503.514 309.5,499.5Z" style="fill:rgb(177,177,177);"/>
    </g>
    <g transform="matrix(1,0,0,1,-100,-100)">
        <rect x="325.5" y="525.5" width="12" height="31" style="fill:rgb(135,135,136);"/>
    </g>
    <g transform="matrix(1,0,0,1,-100,-100)">
        <path d="M621.5,525.5L622.5,525.5L622.5,556.5L633.5,556.5L633.5,525.5L634.5,525.5L634.5,557.5L621.5,557.5L621.5,525.5Z" style="fill:rgb(90,90,90);"/>
    </g>
    <g transform="matrix(1,0,0,1,-100,-100)">
        <path d="M325.5,485.5L325.5,556.5L337.5,556.5C333.366,557.485 329.032,557.818 324.5,557.5C324.169,533.328 324.502,509.328 325.5,485.5Z" style="fill:rgb(55,55,55);"/>
    </g>
    <g transform="matrix(1,0,0,1,-100,-100)">
        <rect x="622.5" y="525.5" width="11" height="31" style="fill:rgb(141,140,139);"/>
    </g>
    <g transform="matrix(1,0,0,1,-100,-100)">
        <path d="M297.5,551.5C295.604,555.297 294.27,559.297 293.5,563.5L286.5,563.5C287.634,558.101 288.968,552.768 290.5,547.5C293.303,547.961 295.637,549.295 297.5,551.5Z" style="fill:rgb(242,242,242);"/>
    </g>
    <g transform="matrix(1,0,0,1,-100,-100)">
        <path d="M659.5,552.5C660.496,552.414 661.329,552.748 662,553.5C663.858,556.572 665.024,559.905 665.5,563.5C663.16,564.086 660.993,565.086 659,566.5C656.793,562.376 655.293,558.043 654.5,553.5C656.216,553.371 657.883,553.038 659.5,552.5Z" style="fill:rgb(241,241,241);"/>
    </g>
    <g transform="matrix(1,0,0,1,-100,-100)">
        <path d="M297.5,551.5C300.174,552.502 302.508,554.002 304.5,556C302.602,558.861 301.602,562.027 301.5,565.5C298.673,565.416 296.006,564.75 293.5,563.5C294.27,559.297 295.604,555.297 297.5,551.5Z" style="fill:rgb(145,145,145);"/>
    </g>
    <g transform="matrix(1,0,0,1,-100,-100)">
        <path d="M665.5,563.5C665.024,559.905 663.858,556.572 662,553.5C661.329,552.748 660.496,552.414 659.5,552.5C662.124,550.556 664.791,548.556 667.5,546.5C669.698,551.761 671.698,557.095 673.5,562.5C670.914,563.48 668.247,563.813 665.5,563.5Z" style="fill:rgb(133,132,131);"/>
    </g>
    <g transform="matrix(1,0,0,1,-100,-100)">
        <path d="M292.5,578.5C290.612,581.899 288.112,584.899 285,587.5C283.509,591.531 282.343,595.531 281.5,599.5C273.956,590.83 275.289,583.664 285.5,578C288.039,577.204 290.372,577.371 292.5,578.5Z" style="fill:rgb(240,240,240);"/>
    </g>
    <g transform="matrix(1,0,0,1,-100,-100)">
        <path d="M664.5,599.5C663.504,599.586 662.671,599.252 662,598.5C656.251,590.288 657.751,583.955 666.5,579.5C668.262,579.643 669.929,579.309 671.5,578.5C672.5,579.5 673.5,580.5 674.5,581.5C666.971,585.228 663.638,591.228 664.5,599.5Z" style="fill:rgb(241,241,241);"/>
    </g>
    <g transform="matrix(1,0,0,1,-100,-100)">
        <path d="M664.5,599.5C663.638,591.228 666.971,585.228 674.5,581.5C673.5,580.5 672.5,579.5 671.5,578.5C669.929,579.309 668.262,579.643 666.5,579.5C667.624,578.191 669.124,577.525 671,577.5C682.983,580.79 685.816,587.957 679.5,599C676.702,600.734 673.702,601.901 670.5,602.5C667.898,602.533 665.898,601.533 664.5,599.5Z" style="fill:rgb(200,200,200);"/>
    </g>
    <g transform="matrix(1,0,0,1,-100,-100)">
        <path d="M292.5,578.5C299.879,581.749 302.379,587.416 300,595.5C294.863,602.821 288.696,604.154 281.5,599.5C282.343,595.531 283.509,591.531 285,587.5C288.112,584.899 290.612,581.899 292.5,578.5Z" style="fill:rgb(198,198,199);"/>
    </g>
    <g transform="matrix(1,0,0,1,-100,-100)">
        <path d="M600.5,492.5C601.222,492.918 601.722,493.584 602,494.5C602.832,540.335 602.665,586.002 601.5,631.5C601.813,585.143 601.48,538.81 600.5,492.5Z" style="fill:rgb(112,112,112);"/>
    </g>
    <g transform="matrix(1,0,0,1,-100,-100)">
        <path d="M636.5,572.5C632.03,573.486 627.363,573.819 622.5,573.5C622.83,593.007 622.497,612.341 621.5,631.5L621.5,572.5L636.5,572.5Z" style="fill:rgb(142,142,142);"/>
    </g>
    <g transform="matrix(1,0,0,1,-100,-100)">
        <path d="M284.5,616.5C284.964,620.502 284.298,624.169 282.5,627.5L276.5,627.5C277.008,623.109 277.842,618.775 279,614.5C280.584,615.861 282.418,616.528 284.5,616.5Z" style="fill:rgb(239,239,239);"/>
    </g>
    <g transform="matrix(1,0,0,1,-100,-100)">
        <path d="M584.5,492.5L584.5,496.5C582.265,496.205 580.265,496.539 578.5,497.5C575.498,499.468 574.832,502.135 576.5,505.5C578.258,507.738 580.592,508.738 583.5,508.5C584.833,527.822 585.5,547.488 585.5,567.5C585.5,587.512 584.833,607.178 583.5,626.5C575.182,626.987 573.515,630.487 578.5,637C580.473,637.495 582.473,637.662 584.5,637.5C585.482,640.962 585.815,644.629 585.5,648.5L372.5,648.5C370.326,648.25 368.659,647.25 367.5,645.5C368.765,644.486 369.431,642.986 369.5,641C369.801,596.683 369.468,552.35 368.5,508C369.264,505.931 369.764,503.764 370,501.5C370.383,500.944 370.883,500.611 371.5,500.5C371.343,501.873 371.51,503.207 372,504.5C374.739,508.782 378.073,509.448 382,506.5C384.535,498.534 381.702,495.534 373.5,497.5C374.716,495.549 376.382,494.049 378.5,493C447.166,492.5 515.833,492.333 584.5,492.5Z" style="fill:rgb(198,198,198);"/>
    </g>
    <g transform="matrix(1,0,0,1,-100,-100)">
        <path d="M553.5,513.5C561.519,515.007 567.019,519.674 570,527.5C570.667,557.5 570.667,587.5 570,617.5C568.264,624.237 564.097,628.737 557.5,631C504.442,631.987 451.442,631.653 398.5,630C393.748,626.586 390.581,622.086 389,616.5C388.333,587.5 388.333,558.5 389,529.5C390.475,522.197 394.642,517.197 401.5,514.5C452.143,513.518 502.81,513.185 553.5,513.5Z" style="fill:rgb(31,41,55);"/>
    </g>
    <g transform="matrix(1,0,0,1,-100,-100)">
        <path d="M404.5,589.5L554.5,589.5C554.817,598.085 554.483,606.585 553.5,615C504.167,615.667 454.833,615.667 405.5,615C404.517,606.585 404.183,598.085 404.5,589.5Z" style="fill:rgb(199,199,199);"/>
    </g>
    <g transform="matrix(1,0,0,1,-100,-100)">
        <path d="M404.5,565.5C405.468,567.607 405.802,569.941 405.5,572.5L554.5,572.5C504.669,573.499 454.669,573.832 404.5,573.5L404.5,565.5Z" style="fill:rgb(214,214,214);"/>
    </g>
    <g transform="matrix(1,0,0,1,-100,-100)">
        <path d="M554.5,572.5L405.5,572.5C405.802,569.941 405.468,567.607 404.5,565.5L404.5,561.5L554.5,561.5L554.5,572.5Z" style="fill:rgb(248,248,248);"/>
    </g>
    <g transform="matrix(1,0,0,1,-100,-100)">
        <path d="M554.5,531.5C555.461,533.265 555.795,535.265 555.5,537.5C504.997,537.832 454.664,537.499 404.5,536.5L554.5,536.5L554.5,531.5Z" style="fill:rgb(207,207,207);"/>
    </g>
    <g transform="matrix(1,0,0,1,-100,-100)">
        <path d="M554.5,531.5L554.5,536.5L404.5,536.5C404.244,534.208 404.577,532.041 405.5,530C454.833,529.333 504.167,529.333 553.5,530C554.056,530.383 554.389,530.883 554.5,531.5Z" style="fill:rgb(252,252,252);"/>
    </g>
    <g transform="matrix(1,0,0,1,-100,-100)">
        <path d="M553.5,513.5C502.81,513.185 452.143,513.518 401.5,514.5C402.263,513.732 403.263,513.232 404.5,513C454.335,512.168 504.002,512.335 553.5,513.5Z" style="fill:rgb(147,147,147);"/>
    </g>
    <g transform="matrix(1,0,0,1,-100,-100)">
        <path d="M673.5,616.5C673.942,620.154 674.276,623.821 674.5,627.5L666.5,627.5C666.448,623.802 666.114,620.135 665.5,616.5L673.5,616.5Z" style="fill:rgb(242,242,242);"/>
    </g>
    <g transform="matrix(1,0,0,1,-100,-100)">
        <path d="M284.5,616.5L293.5,616.5L293.5,627.5L282.5,627.5C284.298,624.169 284.964,620.502 284.5,616.5Z" style="fill:rgb(129,129,127);"/>
    </g>
    <g transform="matrix(1,0,0,1,-100,-100)">
        <path d="M674.5,627.5C674.276,623.821 673.942,620.154 673.5,616.5C675.865,615.992 678.199,615.325 680.5,614.5C682.185,618.655 682.851,622.988 682.5,627.5L674.5,627.5Z" style="fill:rgb(137,137,137);"/>
    </g>
    <g transform="matrix(1,0,0,1,-100,-100)">
        <path d="M583.5,626.5C588.409,629.721 588.742,633.388 584.5,637.5C582.473,637.662 580.473,637.495 578.5,637C573.515,630.487 575.182,626.987 583.5,626.5Z" style="fill:rgb(31,41,55);"/>
    </g>
    <g transform="matrix(1,0,0,1,-100,-100)">
        <path d="M374.5,626.5C384.217,626.959 385.884,630.792 379.5,638C373.242,638.702 370.742,635.868 372,629.5C373.045,628.627 373.878,627.627 374.5,626.5Z" style="fill:rgb(31,41,55);"/>
    </g>
    <g transform="matrix(1,0,0,1,-100,-100)">
        <path d="M701.5,678.5C704.628,664.514 699.628,654.847 686.5,649.5C685.287,649.747 684.62,650.414 684.5,651.5C683.527,649.052 683.194,646.385 683.5,643.5C696.686,646.024 704.02,654.024 705.5,667.5C704.969,671.542 703.636,675.208 701.5,678.5Z" style="fill:rgb(164,164,163);"/>
    </g>
    <g transform="matrix(1,0,0,1,-100,-100)">
        <path d="M274.5,643.5C274.56,642.957 274.893,642.624 275.5,642.5C276.652,645.106 276.818,647.773 276,650.5C268.463,653.893 263.463,659.56 261,667.5C260.828,672.202 260.328,676.868 259.5,681.5C257.748,679.754 256.415,677.754 255.5,675.5C256.352,669.087 257.852,662.753 260,656.5C261.141,654.391 262.641,652.558 264.5,651C268.233,648.081 271.566,645.581 274.5,643.5Z" style="fill:rgb(134,134,135);"/>
    </g>
    <g transform="matrix(1,0,0,1,-100,-100)">
        <path d="M310.5,679.5C314.894,663.603 309.228,653.603 293.5,649.5C293.192,647.076 293.526,644.743 294.5,642.5C312.383,649.891 317.716,662.225 310.5,679.5Z" style="fill:rgb(172,172,171);"/>
    </g>
    <g transform="matrix(1,0,0,1,-100,-100)">
        <path d="M293.5,649.5C309.228,653.603 314.894,663.603 310.5,679.5C310.217,680.289 309.717,680.956 309,681.5C309.407,673.665 307.74,666.332 304,659.5C300.558,655.886 297.058,652.552 293.5,649.5Z" style="fill:rgb(242,242,242);"/>
    </g>
    <g transform="matrix(1,0,0,1,-100,-100)">
        <path d="M666.5,644.5C652.887,649.438 645.887,659.104 645.5,673.5C643.743,659.526 649.41,649.692 662.5,644C664.066,643.235 665.399,643.402 666.5,644.5Z" style="fill:rgb(219,219,220);"/>
    </g>
    <g transform="matrix(1,0,0,1,-100,-100)">
        <path d="M274.5,643.5C271.566,645.581 268.233,648.081 264.5,651C262.641,652.558 261.141,654.391 260,656.5C257.852,662.753 256.352,669.087 255.5,675.5C252.075,659.014 258.409,648.347 274.5,643.5Z" style="fill:rgb(228,228,228);"/>
    </g>
    <g transform="matrix(1,0,0,1,-100,-100)">
        <path d="M701.5,678.5C700.928,679.973 700.095,681.307 699,682.5C701.506,668.436 696.672,658.103 684.5,651.5C684.62,650.414 685.287,649.747 686.5,649.5C699.628,654.847 704.628,664.514 701.5,678.5Z" style="fill:rgb(241,241,240);"/>
    </g>
    <g transform="matrix(1,0,0,1,-100,-100)">
        <path d="M666.5,644.5C666.799,646.604 666.466,648.604 665.5,650.5C653.974,657 648.641,667 649.5,680.5C647.4,678.636 646.067,676.303 645.5,673.5C645.887,659.104 652.887,649.438 666.5,644.5Z" style="fill:rgb(138,138,139);"/>
    </g>
    <g transform="matrix(1,0,0,1,-100,-100)">
        <rect x="411.5" y="668.5" width="162" height="9" style="fill:rgb(139,139,139);"/>
    </g>
    <g transform="matrix(1,0,0,1,-100,-100)">
        <rect x="385.5" y="668.5" width="26" height="9" style="fill:rgb(196,196,196);"/>
    </g>
    <g transform="matrix(1,0,0,1,-100,-100)">
        <path d="M385.5,692.5C401.658,691.504 417.991,691.17 434.5,691.5C434.815,695.371 434.482,699.038 433.5,702.5L433.5,692.5L385.5,692.5Z" style="fill:rgb(72,72,72);"/>
    </g>
    <g transform="matrix(1,0,0,1,-100,-100)">
        <rect x="385.5" y="692.5" width="12" height="10" style="fill:rgb(247,247,247);"/>
    </g>
    <g transform="matrix(1,0,0,1,-100,-100)">
        <rect x="525.5" y="692.5" width="12" height="10" style="fill:rgb(250,250,250);"/>
    </g>
    <g transform="matrix(1,0,0,1,-100,-100)">
        <rect x="397.5" y="692.5" width="12" height="10" style="fill:rgb(200,200,200);"/>
    </g>
    <g transform="matrix(1,0,0,1,-100,-100)">
        <path d="M453.5,696.5L505.5,696.5L505.5,729.5C500.178,733.324 495.345,737.657 491,742.5C482.43,741.565 473.93,741.232 465.5,741.5C462.153,736.321 457.987,731.988 453,728.5C452.175,717.659 452.341,706.992 453.5,696.5Z" style="fill:rgb(181,181,181);"/>
    </g>
    <g transform="matrix(1,0,0,1,-100,-100)">
        <rect x="537.5" y="692.5" width="12" height="10" style="fill:rgb(199,199,198);"/>
    </g>
    <g transform="matrix(1,0,0,1,-100,-100)">
        <rect x="549.5" y="692.5" width="24" height="10" style="fill:rgb(131,131,130);"/>
    </g>
    <g transform="matrix(1,0,0,1,-100,-100)">
        <rect x="409.5" y="692.5" width="24" height="10" style="fill:rgb(135,135,134);"/>
    </g>
    <g transform="matrix(1,0,0,1,-100,-100)">
        <path d="M453.5,696.5C470.992,695.503 488.659,695.17 506.5,695.5C506.828,707.012 506.495,718.346 505.5,729.5L505.5,696.5L453.5,696.5Z" style="fill:rgb(114,114,114);"/>
    </g>
    <g transform="matrix(1,0,0,1,-100,-100)">
        <path d="M549.5,717.5L525.5,717.5L525.5,726.5C524.521,723.375 524.187,720.042 524.5,716.5C533.017,716.174 541.35,716.507 549.5,717.5Z" style="fill:rgb(109,109,109);"/>
    </g>
    <g transform="matrix(1,0,0,1,-100,-100)">
        <rect x="385.5" y="717.5" width="12" height="9" style="fill:rgb(245,245,245);"/>
    </g>
    <g transform="matrix(1,0,0,1,-100,-100)">
        <rect x="525.5" y="717.5" width="11" height="9" style="fill:rgb(253,253,253);"/>
    </g>
    <g transform="matrix(1,0,0,1,-100,-100)">
        <rect x="536.5" y="717.5" width="13" height="9" style="fill:rgb(204,204,204);"/>
    </g>
    <g transform="matrix(1,0,0,1,-100,-100)">
        <rect x="549.5" y="717.5" width="24" height="9" style="fill:rgb(137,137,138);"/>
    </g>
    <g transform="matrix(1,0,0,1,-100,-100)">
        <rect x="397.5" y="717.5" width="12" height="9" style="fill:rgb(201,201,202);"/>
    </g>
    <g transform="matrix(1,0,0,1,-100,-100)">
        <path d="M385.5,717.5C401.664,716.793 417.997,716.793 434.5,717.5L434.5,726.5L409.5,726.5L409.5,717.5L385.5,717.5Z" style="fill:rgb(133,133,135);"/>
    </g>
    <g transform="matrix(1,0,0,1,-100,-100)">
        <path d="M417.5,741.5C419.364,743.014 421.364,744.347 423.5,745.5C411.294,746.105 398.96,746.939 386.5,748C382.876,750.473 379.542,753.307 376.5,756.5C375.253,758.323 374.586,760.323 374.5,762.5L361.5,762.5C361.141,752.341 365.807,745.508 375.5,742C389.496,741.5 403.496,741.333 417.5,741.5Z" style="fill:rgb(247,247,247);"/>
    </g>
    <g transform="matrix(1,0,0,1,-100,-100)">
        <path d="M562.5,741.5C564.118,743.316 566.118,744.649 568.5,745.5C556.875,747.317 544.875,748.15 532.5,748C525.612,750.721 520.945,755.554 518.5,762.5L506.5,762.5C506.382,752.912 510.716,746.079 519.5,742C533.829,741.5 548.163,741.333 562.5,741.5Z" style="fill:rgb(246,246,246);"/>
    </g>
    <g transform="matrix(1,0,0,1,-100,-100)">
        <path d="M562.5,741.5C569.508,741.334 576.508,741.5 583.5,742C593.34,745.857 598.007,753.023 597.5,763.5C566.995,763.831 536.662,763.498 506.5,762.5L577.5,762.5C577.55,755.217 574.55,749.55 568.5,745.5C566.118,744.649 564.118,743.316 562.5,741.5Z" style="fill:rgb(133,133,132);"/>
    </g>
    <g transform="matrix(1,0,0,1,-100,-100)">
        <path d="M417.5,741.5C426.016,740.885 434.349,741.718 442.5,744C449.671,748.509 453.005,755.009 452.5,763.5C421.995,763.831 391.662,763.498 361.5,762.5L432.5,762.5C432.907,754.979 429.907,749.312 423.5,745.5C421.364,744.347 419.364,743.014 417.5,741.5Z" style="fill:rgb(136,136,135);"/>
    </g>
    <g transform="matrix(1,0,0,1,-100,-100)">
        <path d="M423.5,745.5C429.907,749.312 432.907,754.979 432.5,762.5L374.5,762.5C374.586,760.323 375.253,758.323 376.5,756.5C379.542,753.307 382.876,750.473 386.5,748C398.96,746.939 411.294,746.105 423.5,745.5Z" style="fill:rgb(203,203,203);"/>
    </g>
    <g transform="matrix(1,0,0,1,-100,-100)">
        <path d="M568.5,745.5C574.55,749.55 577.55,755.217 577.5,762.5L518.5,762.5C520.945,755.554 525.612,750.721 532.5,748C544.875,748.15 556.875,747.317 568.5,745.5Z" style="fill:rgb(201,202,202);"/>
    </g>
    <g transform="matrix(1,0,0,1,-100,-100)">
        <path d="M661.5,791.5C604.744,824.612 543.077,840.945 476.5,840.5C461.455,840.405 446.455,839.572 431.5,838C383.607,831.192 338.94,815.692 297.5,791.5C298.376,791.631 299.043,791.298 299.5,790.5C307.94,771.409 322.607,762.743 343.5,764.5C342.989,772.982 346.656,778.815 354.5,782C389.167,782.667 423.833,782.667 458.5,782C467.983,778.555 472.649,771.722 472.5,761.5C477.137,758.921 481.804,758.921 486.5,761.5C487.059,770.465 491.059,777.298 498.5,782C533.167,782.667 567.833,782.667 602.5,782C611.407,779.59 616.073,773.757 616.5,764.5C636.9,763.198 651.233,771.864 659.5,790.5C659.957,791.298 660.624,791.631 661.5,791.5Z" style="fill:rgb(182,182,182);"/>
    </g>
</svg>
