<?xml version="1.0" encoding="UTF-8" standalone="no"?>
<!DOCTYPE svg PUBLIC "-//W3C//DTD SVG 1.1//EN" "http://www.w3.org/Graphics/SVG/1.1/DTD/svg11.dtd">
<svg width="100%" height="100%" viewBox="0 0 531 531" version="1.1" xmlns="http://www.w3.org/2000/svg" xmlns:xlink="http://www.w3.org/1999/xlink" xml:space="preserve" xmlns:serif="http://www.serif.com/" style="fill-rule:evenodd;clip-rule:evenodd;stroke-linejoin:round;stroke-miterlimit:2;">
    <g transform="matrix(0.899847,0,0,0.899847,-1361.21,-695.388)">
        <g transform="matrix(-2.12271,-8.05845,-8.05845,2.12271,2078.96,985.582)">
            <path d="M-1.135,-1.469C-0.481,-1.466 0.034,-0.937 0.039,-0.299C0.032,0.342 -0.494,0.87 -1.135,0.863C-1.773,0.868 -2.301,0.342 -2.294,-0.299C-2.301,-0.949 -1.772,-1.465 -1.135,-1.469" style="fill:rgb(250,203,72);"/>
        </g>
        <g transform="matrix(0.738306,-8.30056,-8.30056,-0.738306,2093.96,1083.48)">
            <path d="M-1.158,-1.06C-0.512,-1.063 0.001,-0.543 0.005,0.103C0.008,0.749 -0.513,1.275 -1.158,1.266C-1.804,1.269 -2.33,0.748 -2.333,0.102C-2.324,-0.543 -1.804,-1.056 -1.158,-1.06" style="fill:rgb(250,203,72);"/>
        </g>
        <g transform="matrix(7.55518,-3.5162,-3.5162,-7.55518,1935.06,1333.26)">
            <path d="M-0.49,-0.106C0.161,-0.115 0.684,0.404 0.676,1.05C0.685,1.701 0.166,2.224 -0.49,2.221C-1.131,2.225 -1.654,1.706 -1.651,1.05C-1.655,0.409 -1.136,-0.114 -0.49,-0.106" style="fill:rgb(250,203,72);"/>
        </g>
        <g transform="matrix(8.30149,-0.727822,-0.727822,-8.30149,1831.21,1331.99)">
            <path d="M-0.151,-0.007C0.799,-0.005 1.584,0.767 1.582,1.716C1.582,2.677 0.81,3.452 -0.151,3.463C-1.101,3.461 -1.886,2.689 -1.886,1.728C-1.885,0.766 -1.113,-0.008 -0.151,-0.007" style="fill:rgb(250,203,72);"/>
        </g>
        <g transform="matrix(8.30425,-0.695606,-0.695606,-8.30425,1833.29,1362.06)">
            <path d="M-0.097,-0.005C0.548,-0.01 1.067,0.518 1.072,1.163C1.064,1.809 0.549,2.327 -0.097,2.32C-0.742,2.325 -1.273,1.798 -1.266,1.152C-1.271,0.507 -0.743,-0.012 -0.097,-0.005" style="fill:rgb(250,203,72);"/>
        </g>
        <g transform="matrix(8.0478,2.16273,2.16273,-8.0478,1727.87,1352.11)">
            <path d="M0.303,-0.039C0.944,-0.042 1.467,0.488 1.471,1.13C1.463,1.767 0.944,2.294 0.303,2.296C-0.35,2.297 -0.865,1.782 -0.865,1.129C-0.868,0.488 -0.351,-0.038 0.303,-0.039" style="fill:rgb(250,203,72);"/>
        </g>
        <g transform="matrix(8.33333,0,0,8.33333,1938.42,962.863)">
            <path d="M0,25.795C0.096,25.682 0.193,25.57 0.286,25.454C0.424,25.283 0.556,25.108 0.688,24.933C0.771,24.823 0.857,24.716 0.938,24.604C1.139,24.326 1.333,24.043 1.521,23.754C1.601,23.631 1.675,23.504 1.752,23.379C1.863,23.2 1.974,23.022 2.08,22.839C2.162,22.696 2.24,22.549 2.319,22.404C2.412,22.233 2.505,22.062 2.594,21.888C2.67,21.737 2.743,21.584 2.816,21.43C2.9,21.255 2.983,21.078 3.061,20.9C3.13,20.746 3.195,20.591 3.26,20.435C3.336,20.249 3.41,20.062 3.482,19.873C3.54,19.72 3.597,19.566 3.652,19.411C3.723,19.21 3.788,19.006 3.853,18.802C3.9,18.654 3.948,18.507 3.992,18.358C4.06,18.126 4.12,17.891 4.18,17.656C4.212,17.53 4.248,17.405 4.277,17.278C4.363,16.913 4.441,16.544 4.507,16.17C6.508,4.989 -0.937,-5.682 -12.118,-7.683C-12.525,-7.756 -12.932,-7.812 -13.338,-7.86C-13.407,-7.869 -13.476,-7.874 -13.545,-7.881C-13.892,-7.919 -14.239,-7.948 -14.584,-7.968C-14.647,-7.971 -14.71,-7.766 -14.773,-7.769C-15.159,-7.787 -15.542,-7.584 -15.925,-7.584L-15.946,-7.584C-25.642,-7.584 -34.21,-0.742 -35.97,9.151C-37.971,20.331 -30.259,30.91 -19.079,32.899C-14.236,33.766 -9.231,32.75 -5.231,30.536L-5.231,31.416L-5.687,31.416C-5.038,30.416 -4.449,30.224 -3.843,29.797C-3.816,29.778 -3.81,29.539 -3.783,29.52C-3.524,29.335 -3.279,29.036 -3.028,28.84C-2.951,28.779 -2.881,28.662 -2.805,28.601C-2.608,28.442 -2.416,28.253 -2.225,28.087C-2.131,28.005 -2.04,27.908 -1.948,27.825C-1.779,27.673 -1.614,27.512 -1.45,27.354C-1.35,27.258 -1.252,27.158 -1.154,27.059C-1.003,26.908 -0.855,26.751 -0.708,26.595C-0.608,26.488 -0.508,26.381 -0.411,26.272C-0.271,26.116 -0.135,25.955 0,25.795" style="fill:rgb(250,203,72);"/>
        </g>
        <g transform="matrix(4.76374,6.83748,6.83748,-4.76374,1617.85,1177.02)">
            <path d="M2.222,-1.163C3.719,-1.157 4.931,0.053 4.925,1.549C4.928,3.04 3.719,4.252 2.222,4.246C0.721,4.256 -0.481,3.04 -0.484,1.549C-0.478,0.052 0.731,-1.16 2.222,-1.163" style="fill:rgb(250,203,72);"/>
        </g>
        <g transform="matrix(4.76332,6.83778,6.83778,-4.76332,1587.77,1206.15)">
            <path d="M1.419,-0.74C2.377,-0.743 3.153,0.032 3.157,0.99C3.159,1.948 2.378,2.714 1.419,2.718C0.46,2.721 -0.316,1.946 -0.319,0.987C-0.321,0.028 0.46,-0.738 1.419,-0.74" style="fill:rgb(250,203,72);"/>
        </g>
        <g transform="matrix(4.76159,6.83898,6.83898,-4.76159,1563.56,1227.72)">
            <path d="M0.958,-0.5C1.594,-0.499 2.119,0.021 2.125,0.667C2.121,1.319 1.594,1.835 0.958,1.834C0.306,1.83 -0.21,1.303 -0.209,0.667C-0.216,0.021 0.312,-0.494 0.958,-0.5" style="fill:rgb(250,203,72);"/>
        </g>
        <g transform="matrix(2.1492,8.05142,8.05142,-2.1492,1597.78,1100.65)">
            <path d="M2.613,-2.007C4.107,-2.004 5.321,-0.797 5.318,0.697C5.327,2.189 4.107,3.405 2.613,3.402C1.122,3.412 -0.091,2.204 -0.092,0.698C-0.101,-0.793 1.119,-2.01 2.613,-2.007" style="fill:rgb(250,203,72);"/>
        </g>
        <g transform="matrix(2.13025,8.05645,8.05645,-2.13025,1557.43,1119.53)">
            <path d="M1.669,-1.282C2.623,-1.283 3.403,-0.511 3.407,0.453C3.397,1.41 2.621,2.179 1.669,2.18C0.704,2.184 -0.069,1.397 -0.069,0.445C-0.058,-0.512 0.713,-1.293 1.669,-1.282" style="fill:rgb(250,203,72);"/>
        </g>
        <g transform="matrix(2.16273,8.0478,8.0478,-2.16273,1526,1132.49)">
            <path d="M1.132,-0.87C1.773,-0.866 2.303,-0.344 2.301,0.298C2.297,0.939 1.785,1.466 1.132,1.465C0.494,1.474 -0.036,0.951 -0.032,0.31C-0.032,-0.344 0.482,-0.859 1.132,-0.87" style="fill:rgb(250,203,72);"/>
        </g>
        <g transform="matrix(-0.746004,8.29987,8.29987,0.746004,1606.98,1026.99)">
            <path d="M2.699,-2.952C4.196,-2.951 5.401,-1.735 5.401,-0.237C5.4,1.26 4.196,2.467 2.699,2.466C1.201,2.466 -0.004,1.249 -0.005,-0.236C-0.004,-1.734 1.201,-2.953 2.699,-2.952" style="fill:rgb(250,203,72);"/>
        </g>
        <g transform="matrix(-0.727822,8.30149,8.30149,0.727822,1559.69,1030.88)">
            <path d="M1.728,-1.886C2.678,-1.888 3.462,-1.114 3.463,-0.152C3.464,0.798 2.69,1.582 1.728,1.583C0.766,1.584 -0.006,0.811 -0.006,-0.151C-0.008,-1.101 0.766,-1.885 1.728,-1.886" style="fill:rgb(250,203,72);"/>
        </g>
        <g transform="matrix(-0.73453,8.3009,8.3009,0.73453,1524.12,1032.44)">
            <path d="M1.157,-1.266C1.803,-1.27 2.329,-0.748 2.321,-0.104C2.325,0.542 1.803,1.068 1.157,1.072C0.513,1.064 -0.013,0.542 -0.005,-0.102C-0.009,-0.748 0.512,-1.261 1.157,-1.266" style="fill:rgb(250,203,72);"/>
        </g>
        <g transform="matrix(-3.54653,7.54099,7.54099,3.54653,1638.94,966.12)">
            <path d="M2.436,-3.862C3.938,-3.866 5.15,-2.653 5.143,-1.154C5.146,0.348 3.938,1.548 2.436,1.552C0.938,1.545 -0.274,0.332 -0.266,-1.167C-0.264,-2.653 0.949,-3.864 2.436,-3.862" style="fill:rgb(250,203,72);"/>
        </g>
        <g transform="matrix(-3.55004,7.53934,7.53934,3.55004,1591.13,951.624)">
            <path d="M1.579,-2.481C2.539,-2.471 3.317,-1.702 3.307,-0.742C3.313,0.212 2.528,0.996 1.579,0.991C0.614,0.992 -0.158,0.213 -0.149,-0.748C-0.155,-1.702 0.625,-2.475 1.579,-2.481" style="fill:rgb(250,203,72);"/>
        </g>
        <g transform="matrix(-3.5162,7.55518,7.55518,3.5162,1555.75,939.837)">
            <path d="M1.055,-1.655C1.7,-1.662 2.219,-1.139 2.227,-0.494C2.223,0.146 1.695,0.676 1.055,0.673C0.41,0.68 -0.109,0.157 -0.117,-0.488C-0.113,-1.128 0.41,-1.647 1.055,-1.655" style="fill:rgb(250,203,72);"/>
        </g>
        <g transform="matrix(-5.91098,5.87408,5.87408,5.91098,1685.07,922.309)">
            <path d="M1.9,-4.627C3.4,-4.631 4.614,-3.41 4.609,-1.918C4.605,-0.426 3.4,0.788 1.9,0.792C0.408,0.787 -0.806,-0.434 -0.81,-1.918C-0.797,-3.418 0.408,-4.632 1.9,-4.627" style="fill:rgb(250,203,72);"/>
        </g>
        <g transform="matrix(-5.89135,5.89376,5.89376,5.89135,1644.52,889.542)">
            <path d="M1.225,-2.957C2.176,-2.966 2.957,-2.186 2.957,-1.226C2.958,-0.265 2.186,0.507 1.225,0.507C0.264,0.507 -0.507,-0.264 -0.516,-1.216C-0.516,-2.176 0.264,-2.957 1.225,-2.957" style="fill:rgb(250,203,72);"/>
        </g>
        <g transform="matrix(-5.91388,5.87116,5.87116,5.91388,1615.19,864.94)">
            <path d="M0.814,-1.997C1.466,-1.994 1.988,-1.469 1.976,-0.826C1.982,-0.183 1.458,0.338 0.814,0.344C0.172,0.334 -0.35,-0.191 -0.348,-0.826C-0.345,-1.478 0.179,-1.999 0.814,-1.997" style="fill:rgb(250,203,72);"/>
        </g>
        <g transform="matrix(-7.55847,3.50913,3.50913,7.55847,1738.15,895.893)">
            <path d="M1.131,-5.149C2.629,-5.148 3.841,-3.947 3.841,-2.45C3.841,-0.952 2.623,0.255 1.131,0.266C-0.366,0.266 -1.573,-0.952 -1.573,-2.449C-1.573,-3.947 -0.366,-5.149 1.131,-5.149" style="fill:rgb(250,203,72);"/>
        </g>
        <g transform="matrix(-7.55042,3.52641,3.52641,7.55042,1712.64,848.872)">
            <path d="M0.725,-3.29C1.674,-3.292 2.462,-2.522 2.453,-1.567C2.46,-0.607 1.685,0.17 0.725,0.177C-0.225,0.179 -1.002,-0.596 -1.009,-1.557C-1.011,-2.506 -0.241,-3.294 0.725,-3.29" style="fill:rgb(250,203,72);"/>
        </g>
        <g transform="matrix(-7.55518,3.5162,3.5162,7.55518,1694.47,814.333)">
            <path d="M0.488,-2.23C1.129,-2.234 1.652,-1.715 1.66,-1.064C1.664,-0.423 1.145,0.1 0.488,0.097C-0.152,0.101 -0.675,-0.418 -0.667,-1.064C-0.671,-1.704 -0.152,-2.227 0.488,-2.23" style="fill:rgb(250,203,72);"/>
        </g>
        <g transform="matrix(-8.30309,0.709363,0.709363,8.30309,1793.67,885.255)">
            <path d="M0.231,-5.394C1.715,-5.399 2.938,-4.189 2.933,-2.692C2.938,-1.195 1.728,0.015 0.231,0.022C-1.266,0.016 -2.477,-1.195 -2.484,-2.691C-2.477,-4.189 -1.267,-5.399 0.231,-5.394" style="fill:rgb(250,203,72);"/>
        </g>
        <g transform="matrix(-8.30149,0.727822,0.727822,8.30149,1788.47,831.475)">
            <path d="M0.151,-3.463C1.101,-3.461 1.887,-2.689 1.886,-1.727C1.885,-0.779 1.113,0.008 0.151,0.007C-0.798,0.005 -1.584,-0.767 -1.583,-1.716C-1.582,-2.677 -0.81,-3.464 0.151,-3.463" style="fill:rgb(250,203,72);"/>
        </g>
        <g transform="matrix(-8.3009,0.73453,0.73453,8.3009,1784.73,792.014)">
            <path d="M0.104,-2.321C0.748,-2.329 1.27,-1.803 1.278,-1.159C1.273,-0.513 0.748,0.009 0.104,0.017C-0.53,0.012 -1.063,-0.501 -1.059,-1.147C-1.067,-1.791 -0.542,-2.325 0.104,-2.321" style="fill:rgb(250,203,72);"/>
        </g>
        <g transform="matrix(-8.04087,-2.18834,-2.18834,8.04087,1849.43,888.842)">
            <path d="M-0.709,-5.309C0.788,-5.316 2.001,-4.093 1.997,-2.599C1.992,-1.105 0.785,0.099 -0.709,0.095C-2.218,0.099 -3.421,-1.12 -3.416,-2.615C-3.411,-4.109 -2.204,-5.313 -0.709,-5.309" style="fill:rgb(250,203,72);"/>
        </g>
        <g transform="matrix(-8.04202,-2.1841,-2.1841,8.04202,1865.56,837.43)">
            <path d="M-0.457,-3.395C0.511,-3.396 1.281,-2.621 1.284,-1.665C1.274,-0.701 0.499,0.069 -0.457,0.073C-1.409,0.065 -2.191,-0.712 -2.184,-1.665C-2.188,-2.62 -1.411,-3.402 -0.457,-3.395" style="fill:rgb(250,203,72);"/>
        </g>
        <g transform="matrix(-8.03397,-2.21355,-2.21355,8.03397,1876.99,799.694)">
            <path d="M-0.31,-2.285C0.344,-2.281 0.866,-1.76 0.854,-1.122C0.85,-0.468 0.328,0.055 -0.31,0.042C-0.963,0.038 -1.474,-0.48 -1.473,-1.121C-1.469,-1.775 -0.951,-2.285 -0.31,-2.285" style="fill:rgb(250,203,72);"/>
        </g>
        <g transform="matrix(-6.81403,-4.79723,-4.79723,6.81403,1904.18,907.304)">
            <path d="M-1.558,-4.919C-0.061,-4.918 1.15,-3.71 1.148,-2.213C1.147,-0.716 -0.061,0.495 -1.558,0.493C-3.054,0.493 -4.266,-0.716 -4.264,-2.213C-4.264,-3.709 -3.046,-4.914 -1.558,-4.919" style="fill:rgb(250,203,72);"/>
        </g>
        <g transform="matrix(-6.82422,-4.78273,-4.78273,6.82422,1938.23,867.069)">
            <path d="M-0.991,-3.162C-0.043,-3.164 0.746,-2.388 0.741,-1.43C0.736,-0.47 -0.033,0.309 -0.991,0.304C-1.946,0.315 -2.729,-0.471 -2.723,-1.429C-2.725,-2.378 -1.957,-3.157 -0.991,-3.162" style="fill:rgb(250,203,72);"/>
        </g>
        <g transform="matrix(-6.8189,-4.79031,-4.79031,6.8189,1962.72,836.869)">
            <path d="M-0.673,-2.129C-0.027,-2.12 0.498,-1.602 0.489,-0.957C0.498,-0.314 -0.031,0.205 -0.673,0.213C-1.319,0.204 -1.844,-0.314 -1.835,-0.959C-1.843,-1.603 -1.315,-2.121 -0.673,-2.129" style="fill:rgb(250,203,72);"/>
        </g>
        <g transform="matrix(-4.77617,-6.82881,-6.82881,4.77617,1954.41,942.392)">
            <path d="M-2.228,-4.265C-0.731,-4.261 0.483,-3.053 0.479,-1.557C0.486,-0.066 -0.732,1.155 -2.228,1.151C-3.719,1.157 -4.933,-0.05 -4.929,-1.547C-4.943,-3.047 -3.729,-4.252 -2.228,-4.265" style="fill:rgb(250,203,72);"/>
        </g>
        <g transform="matrix(-4.78273,-6.82422,-6.82422,4.78273,1999.93,918.941)">
            <path d="M-1.414,-2.713C-0.455,-2.718 0.323,-1.945 0.318,-0.98C0.317,-0.032 -0.455,0.747 -1.414,0.753C-2.363,0.751 -3.141,-0.021 -3.146,-0.98C-3.151,-1.939 -2.379,-2.717 -1.414,-2.713" style="fill:rgb(250,203,72);"/>
        </g>
        <g transform="matrix(-4.79031,-6.8189,-6.8189,4.79031,2032.8,900.634)">
            <path d="M-0.958,-1.844C-0.322,-1.845 0.205,-1.328 0.204,-0.674C0.206,-0.039 -0.312,0.489 -0.958,0.498C-1.6,0.49 -2.129,-0.029 -2.12,-0.672C-2.13,-1.318 -1.604,-1.835 -0.958,-1.844" style="fill:rgb(250,203,72);"/>
        </g>
        <g transform="matrix(-2.1492,-8.05142,-8.05142,2.1492,1994.41,995.257)">
            <path d="M-2.614,-3.402C-1.122,-3.411 0.094,-2.193 0.091,-0.699C0.089,0.797 -1.118,2.01 -2.614,2.007C-4.105,2.016 -5.321,0.797 -5.33,-0.694C-5.327,-2.189 -4.119,-3.402 -2.614,-3.402" style="fill:rgb(250,203,72);"/>
        </g>
        <g transform="matrix(-2.15722,-8.04928,-8.04928,2.15722,2042.9,990.578)">
            <path d="M-1.665,-2.175C-0.711,-2.179 0.06,-1.408 0.065,-0.454C0.072,0.511 -0.701,1.282 -1.665,1.29C-2.618,1.294 -3.394,0.51 -3.397,-0.443C-3.402,-1.396 -2.633,-2.18 -1.665,-2.175" style="fill:rgb(250,203,72);"/>
        </g>
        <g transform="matrix(0.746004,-8.29987,-8.29987,-0.746004,2015.68,1063.62)">
            <path d="M-2.692,-2.472C-1.208,-2.472 0.01,-1.255 0.01,0.243C0.01,1.727 -1.208,2.945 -2.692,2.945C-4.189,2.945 -5.407,1.727 -5.408,0.242C-5.407,-1.255 -4.19,-2.473 -2.692,-2.472" style="fill:rgb(250,203,72);"/>
        </g>
        <g transform="matrix(0.756413,-8.29893,-8.29893,-0.756413,2060.1,1075.71)">
            <path d="M-1.728,-1.578C-0.766,-1.575 0.003,-0.799 0.001,0.162C-0.001,1.112 -0.778,1.894 -1.728,1.893C-2.69,1.89 -3.458,1.114 -3.456,0.153C-3.454,-0.809 -2.678,-1.579 -1.728,-1.578" style="fill:rgb(250,203,72);"/>
        </g>
        <g transform="matrix(3.53943,-7.54433,-7.54433,-3.53943,2010.45,1140.19)">
            <path d="M-2.45,-1.564C-0.953,-1.558 0.26,-0.345 0.254,1.152C0.253,2.638 -0.958,3.85 -2.45,3.861C-3.947,3.855 -5.161,2.643 -5.154,1.146C-5.164,-0.346 -3.953,-1.558 -2.45,-1.564" style="fill:rgb(250,203,72);"/>
        </g>
        <g transform="matrix(3.52641,-7.55042,-7.55042,-3.52641,2045.84,1164.81)">
            <path d="M-1.579,-1.002C-0.63,-1 0.161,-0.229 0.154,0.732C0.163,1.686 -0.614,2.46 -1.579,2.465C-2.534,2.474 -3.308,1.697 -3.313,0.732C-3.311,-0.218 -2.545,-0.998 -1.579,-1.002" style="fill:rgb(250,203,72);"/>
        </g>
        <g transform="matrix(3.55141,-7.5387,-7.5387,-3.55141,2073.82,1182.78)">
            <path d="M-1.055,-0.669C-0.41,-0.674 0.118,-0.143 0.111,0.497C0.116,1.142 -0.415,1.67 -1.055,1.663C-1.7,1.668 -2.217,1.142 -2.221,0.497C-2.226,-0.148 -1.7,-0.665 -1.055,-0.669" style="fill:rgb(250,203,72);"/>
        </g>
        <g transform="matrix(5.90179,-5.88331,-5.88331,-5.90179,1974.65,1213.02)">
            <path d="M-1.908,-0.785C-0.408,-0.791 0.799,0.42 0.806,1.92C0.803,3.412 -0.408,4.619 -1.908,4.626C-3.4,4.623 -4.607,3.412 -4.605,1.92C-4.611,0.42 -3.4,-0.787 -1.908,-0.785" style="fill:rgb(250,203,72);"/>
        </g>
        <g transform="matrix(5.90693,-5.87814,-5.87814,-5.90693,1999.08,1245.56)">
            <path d="M-1.229,-0.504C-0.269,-0.502 0.51,0.281 0.499,1.233C0.497,2.193 -0.268,2.971 -1.229,2.969C-2.189,2.967 -2.96,2.193 -2.957,1.233C-2.964,0.281 -2.181,-0.498 -1.229,-0.504" style="fill:rgb(250,203,72);"/>
        </g>
        <g transform="matrix(5.89256,-5.89256,-5.89256,-5.89256,2018.86,1270.24)">
            <path d="M-0.823,-0.337C-0.179,-0.346 0.343,0.177 0.352,0.82C0.352,1.472 -0.171,1.995 -0.823,1.995C-1.457,1.995 -1.98,1.472 -1.989,0.829C-1.989,0.177 -1.466,-0.346 -0.823,-0.337" style="fill:rgb(250,203,72);"/>
        </g>
        <g transform="matrix(7.55847,-3.50913,-3.50913,-7.55847,1910.87,1268.27)">
            <path d="M-1.139,-0.249C0.358,-0.249 1.576,0.963 1.576,2.461C1.576,3.959 0.358,5.166 -1.139,5.165C-2.636,5.166 -3.839,3.959 -3.838,2.461C-3.838,0.964 -2.637,-0.25 -1.139,-0.249" style="fill:rgb(250,203,72);"/>
        </g>
        <g transform="matrix(7.56654,-3.49169,-3.49169,-7.56654,1924.04,1304.76)">
            <path d="M-0.727,-0.16C0.227,-0.146 1.006,0.616 0.998,1.582C1,2.542 0.222,3.315 -0.727,3.313C-1.693,3.304 -2.466,2.526 -2.464,1.577C-2.466,0.616 -1.688,-0.157 -0.727,-0.16" style="fill:rgb(250,203,72);"/>
        </g>
        <g transform="matrix(8.30309,-0.709363,-0.709363,-8.30309,1828.64,1294.22)">
            <path d="M-0.231,-0.01C1.267,-0.004 2.477,1.207 2.472,2.705C2.477,4.201 1.267,5.412 -0.231,5.406C-1.727,5.412 -2.938,4.201 -2.945,2.705C-2.938,1.207 -1.728,-0.003 -0.231,-0.01" style="fill:rgb(250,203,72);"/>
        </g>
        <g transform="matrix(8.04214,2.18366,2.18366,-8.04214,1742.41,1285.08)">
            <path d="M0.71,-0.095C2.204,-0.091 3.421,1.119 3.418,2.614C3.414,4.108 2.204,5.324 0.71,5.321C-0.785,5.318 -2.002,4.108 -1.999,2.613C-1.995,1.119 -0.785,-0.098 0.71,-0.095" style="fill:rgb(250,203,72);"/>
        </g>
        <g transform="matrix(8.04202,2.1841,2.1841,-8.04202,1734.47,1322.49)">
            <path d="M0.456,-0.061C1.421,-0.049 2.191,0.725 2.195,1.681C2.188,2.633 1.41,3.415 0.456,3.408C-0.499,3.412 -1.281,2.634 -1.274,1.681C-1.274,0.714 -0.5,-0.056 0.456,-0.061" style="fill:rgb(250,203,72);"/>
        </g>
        <g transform="matrix(6.82014,4.78854,4.78854,-6.82014,1667.97,1243.01)">
            <path d="M1.561,-0.491C3.052,-0.482 4.274,0.731 4.264,2.222C4.272,3.709 3.059,4.931 1.561,4.931C0.065,4.933 -1.141,3.716 -1.142,2.219C-1.15,0.732 0.074,-0.484 1.561,-0.491" style="fill:rgb(250,203,72);"/>
        </g>
        <g transform="matrix(6.82422,4.78273,4.78273,-6.82422,1649.28,1277.87)">
            <path d="M0.991,-0.315C1.946,-0.327 2.729,0.458 2.723,1.417C2.725,2.367 1.956,3.146 0.991,3.151C0.043,3.152 -0.737,2.383 -0.741,1.418C-0.743,0.469 0.032,-0.32 0.991,-0.315" style="fill:rgb(250,203,72);"/>
        </g>
        <g transform="matrix(6.8047,4.81046,4.81046,-6.8047,1633.61,1304.72)">
            <path d="M0.673,-0.214C1.326,-0.213 1.843,0.316 1.839,0.952C1.838,1.604 1.309,2.121 0.673,2.118C0.02,2.117 -0.496,1.588 -0.493,0.952C-0.492,0.299 0.037,-0.217 0.673,-0.214" style="fill:rgb(250,203,72);"/>
        </g>
        <g transform="matrix(4.76374,6.83748,6.83748,-4.76374,1617.85,1177.02)">
            <path d="M2.222,-1.163C3.719,-1.157 4.931,0.053 4.925,1.549C4.928,3.04 3.719,4.252 2.222,4.246C0.721,4.256 -0.481,3.04 -0.484,1.549C-0.478,0.052 0.731,-1.16 2.222,-1.163" style="fill:rgb(250,203,72);"/>
        </g>
        <g transform="matrix(4.76332,6.83778,6.83778,-4.76332,1587.77,1206.15)">
            <path d="M1.419,-0.74C2.377,-0.743 3.153,0.032 3.157,0.99C3.159,1.948 2.378,2.714 1.419,2.718C0.46,2.721 -0.316,1.946 -0.319,0.987C-0.321,0.028 0.46,-0.738 1.419,-0.74" style="fill:rgb(250,203,72);"/>
        </g>
        <g transform="matrix(4.76159,6.83898,6.83898,-4.76159,1563.56,1227.72)">
            <path d="M0.958,-0.5C1.594,-0.499 2.119,0.021 2.125,0.667C2.121,1.319 1.594,1.835 0.958,1.834C0.306,1.83 -0.21,1.303 -0.209,0.667C-0.216,0.021 0.312,-0.494 0.958,-0.5" style="fill:rgb(250,203,72);"/>
        </g>
    </g>
</svg>
